<svg width="76" height="100" viewBox="0 0 76 100" xmlns="http://www.w3.org/2000/svg"><title>back</title><path d="M11.45.2h53.81c2.905 0 5.404.933 7.498 2.8C74.852 4.867 75.9 6.867 75.9 9v81.4c0 2.6-.997 4.817-2.99 6.65-1.993 1.833-3.8 2.75-5.421 2.75H8.512c-1.756 0-3.564-.95-5.421-2.85C1.233 95.05.304 93.033.304 90.9V10c0-2.4.963-4.633 2.888-6.7C5.117 1.233 7.87.2 11.451.2zm-.405 3.5c-2.432 0-4.374.85-5.826 2.55C3.766 7.95 3.04 9.9 3.04 12.1v77.8c0 1.533.861 3.05 2.584 4.55s3.53 2.25 5.421 2.25v-93zm3.547 0v93h9.323v-93h-9.323zm12.87 0v93h8.917v-93H27.46zm12.463 0v93h8.816v-93h-8.816zm12.464 0v93h9.323v-93h-9.323zm12.87 0v93c2.5-.733 4.458-1.817 5.877-3.25 1.419-1.433 2.128-2.817 2.128-4.15V11.2c0-2.333-.743-4.167-2.23-5.5-1.486-1.333-3.41-2-5.775-2z" fill="#78a87b" fill-rule="evenodd"/></svg>