<svg width="76" height="100" viewBox="0 0 76 100" xmlns="http://www.w3.org/2000/svg"><title>dg</title><g fill="none" fill-rule="evenodd"><path d="M9.2.3h57.2c2.2 0 4.217 1.083 6.05 3.25C74.283 5.717 75.2 7.6 75.2 9.2v82.3c0 2.2-.967 4.15-2.9 5.85-1.933 1.7-3.6 2.55-5 2.55H8.7c-2.067 0-3.983-1.033-5.75-3.1S.3 92.533.3 90.2V10.5c0-2.667.967-5.033 2.9-7.1C5.133 1.333 7.133.3 9.2.3zm2.6 3.1c-2.133 0-4.133.967-6 2.9C3.933 8.233 3 10.067 3 11.8v77.1c0 2 .817 3.817 2.45 5.45 1.633 1.633 3.317 2.45 5.05 2.45h55c1.533 0 3.1-.8 4.7-2.4 1.6-1.6 2.4-3.3 2.4-5.1V11.4c0-2.133-1.017-4-3.05-5.6-2.033-1.6-3.95-2.4-5.75-2.4h-52z" fill="#FFF"/><path d="M11.8 3.4c-2.133 0-4.133.967-6 2.9C3.933 8.233 3 10.067 3 11.8v77.1c0 2 .817 3.817 2.45 5.45 1.633 1.633 3.317 2.45 5.05 2.45h55c1.533 0 3.1-.8 4.7-2.4 1.6-1.6 2.4-3.3 2.4-5.1V11.4c0-2.133-1.017-4-3.05-5.6-2.033-1.6-3.95-2.4-5.75-2.4h-52z" fill="#FFF"/><path d="M36 18.3c1.667.667 2.5 1.6 2.5 2.8 0 .533-.133 1.217-.4 2.05-.267.833-.533 1.517-.8 2.05.733.4 1.467.817 2.2 1.25.733.433 1.233.85 1.5 1.25.2-.133 1.083-.7 2.65-1.7s2.65-2.133 3.25-3.4l2-.3c1.267 0 2.133.517 2.6 1.55.467 1.033.633 2.05.5 3.05-.267-.067-.667-.1-1.2-.1-.867 0-2.217.483-4.05 1.45-1.833.967-2.883 1.45-3.15 1.45.2.2.683.85 1.45 1.95.767 1.1 1.45 1.85 2.05 2.25 2.067-.467 3.833-1.233 5.3-2.3a40.103 40.103 0 0 0 3.9-3.2 7.18 7.18 0 0 1 3.1 1.35c.933.7 1.4 1.55 1.4 2.55 0 .533-.15.95-.45 1.25-.3.3-.817.717-1.55 1.25-.133.133-.667.117-1.6-.05a22.804 22.804 0 0 1-2.7-.65 40.82 40.82 0 0 0-3.3 1c-.933.333-1.667.633-2.2.9 2.4 2.6 4.45 4.617 6.15 6.05 1.7 1.433 3.233 2.617 4.6 3.55 1.367.933 3.117 1.65 5.25 2.15s3.233.917 3.3 1.25c-1.6 1.467-3.833 2.2-6.7 2.2-1.667 0-2.9-.15-3.7-.45-.8-.3-1.7-.85-2.7-1.65-1.067-1.6-2.867-3.75-5.4-6.45-2.533-2.7-4.283-4.733-5.25-6.1a242.32 242.32 0 0 0-3.5-4.8c-1.367-1.833-2.85-3.45-4.45-4.85-2.867 4.6-5.733 8.567-8.6 11.9s-5 5.767-6.4 7.3c2.867-1.333 4.883-2.15 6.05-2.45 1.167-.3 2.717-.45 4.65-.45.4 1.533.033 3.367-1.1 5.5a64.91 64.91 0 0 1-3.6 6L20 57.4c-.067.2-.333.65-.8 1.35-.467.7-.7 1.317-.7 1.85.6-.4 1.683-.85 3.25-1.35 1.567-.5 2.683-.75 3.35-.75.467 0 .9.15 1.3.45.4.3.683.783.85 1.45.167.667.25 1.4.25 2.2 0 3.867-.45 6.8-1.35 8.8-.9 2-2.017 3.3-3.35 3.9-1.333.6-2.333.9-3 .9-1.467 0-2.6-.717-3.4-2.15-.8-1.433-1.35-2.45-1.65-3.05-.3-.6-.517-1.333-.65-2.2 1.4 1.067 2.483 1.833 3.25 2.3.767.467 1.35.667 1.75.6 1.2 0 2.15-.433 2.85-1.3.7-.867 1.317-2 1.85-3.4.533-1.4.8-2.367.8-2.9 0-1.4-.6-2.1-1.8-2.1-.333 0-1.65.333-3.95 1-2.3.667-3.517 1-3.65 1-.667.2-1-.067-1-.8 0-.533.133-.967.4-1.3l3.5-6.7c1-.2 2.1-.467 3.3-.8 1.2-.333 2.533-.933 4-1.8 1.067-1.6 1.733-2.667 2-3.2.267-.533.567-1.3.9-2.3-.933-.2-1.7-.3-2.3-.3-.467 0-1.033.067-1.7.2s-1.133.2-1.4.2c-.533 0-1.1-.133-1.7-.4-.133.067-1.55 1.317-4.25 3.75S11.6 54.533 9 55.2c.467-.733 1.083-1.417 1.85-2.05A177.28 177.28 0 0 1 13 51.4c1.533-1.8 3.333-3.933 5.4-6.4 2.067-2.467 3.6-4.367 4.6-5.7-1.8-1.6-2.833-2.567-3.1-2.9-.267-.333-.5-.867-.7-1.6a9.865 9.865 0 0 1-.35-2.1c-.033-.667-.083-1.167-.15-1.5.533 0 1.133.017 1.8.05s1.3.233 1.9.6c.6.367 1.15.833 1.65 1.4s1.083 1.117 1.75 1.65c.667-1.067 1.583-2.35 2.75-3.85s1.85-3.15 2.05-4.95c-.8.4-1.533.717-2.2.95-.667.233-1.567.35-2.7.35-2.533 0-3.9-1.033-4.1-3.1 3.533-.533 6.567-1.667 9.1-3.4 2.533-1.733 4.3-2.6 5.3-2.6zm-1.4 22.6l1.3-.4c1.133.533 1.917.967 2.35 1.3.433.333.65.933.65 1.8 0 1.067-.2 2-.6 2.8 1.067 0 2.467-.433 4.2-1.3s2.95-1.35 3.65-1.45c.7-.1 1.25-.15 1.65-.15 1.067 0 1.75.233 2.05.7.3.467.483.9.55 1.3.067.4.1.667.1.8 0 1.067-.5 1.6-1.5 1.6-.733 0-1.717.25-2.95.75s-2.15.75-2.75.75v3.2l-.5 3.8c.6-.067 1.667-.433 3.2-1.1 1.533-.667 2.833-.933 3.9-.8 1.4.2 2.333.5 2.8.9.467.4.7 1.533.7 3.4-4.867 0-8.7.633-11.5 1.9v.7c2.667 1.333 5.55 3.5 8.65 6.5 3.1 3 4.65 5.6 4.65 7.8 0 .467-.283.917-.85 1.35-.567.433-1.183.65-1.85.65-.4 0-1.1-.167-2.1-.5-1-.333-2.35-2.35-4.05-6.05-1.7-3.7-3.483-6.317-5.35-7.85-2 5.267-4.067 9-6.2 11.2-2.133 2.2-5.1 3.3-8.9 3.3 3.2-1.533 5.617-3.167 7.25-4.9 1.633-1.733 3.083-5.133 4.35-10.2-1.533.867-2.717 1.5-3.55 1.9-.833.4-1.85.6-3.05.6-.867 0-1.633-.333-2.3-1-.667-.667-.8-1.167-.4-1.5 1.467.133 3.2-.3 5.2-1.3 2.2-1.267 4.067-2.333 5.6-3.2.333-1.067.583-2.45.75-4.15.167-1.7.25-2.75.25-3.15v-1.3c-.333.067-.633.1-.9.1h-.6a9.37 9.37 0 0 1-1.1-.05c-.267-.033-.467-.083-.6-.15l-2.6 3.4c-.867.933-2.1 1.8-3.7 2.6.867-1.933 1.767-4.183 2.7-6.75a22.809 22.809 0 0 0 1.4-7.85z" fill="green"/></g></svg>