<svg width="76" height="100" viewBox="0 0 76 100" xmlns="http://www.w3.org/2000/svg"><title>dr</title><g fill="none" fill-rule="evenodd"><path d="M9.2.3h57.2c2.2 0 4.217 1.083 6.05 3.25C74.283 5.717 75.2 7.6 75.2 9.2v82.3c0 2.2-.967 4.15-2.9 5.85-1.933 1.7-3.6 2.55-5 2.55H8.7c-2.067 0-3.983-1.033-5.75-3.1S.3 92.533.3 90.2V10.5c0-2.667.967-5.033 2.9-7.1C5.133 1.333 7.133.3 9.2.3zm2.6 3.1c-2.133 0-4.133.967-6 2.9C3.933 8.233 3 10.067 3 11.8v77.1c0 2 .817 3.817 2.45 5.45 1.633 1.633 3.317 2.45 5.05 2.45h55c1.533 0 3.1-.8 4.7-2.4 1.6-1.6 2.4-3.3 2.4-5.1V11.4c0-2.133-1.017-4-3.05-5.6-2.033-1.6-3.95-2.4-5.75-2.4h-52z" fill="#FFF"/><path d="M11.8 3.4c-2.133 0-4.133.967-6 2.9C3.933 8.233 3 10.067 3 11.8v77.1c0 2 .817 3.817 2.45 5.45 1.633 1.633 3.317 2.45 5.05 2.45h55c1.533 0 3.1-.8 4.7-2.4 1.6-1.6 2.4-3.3 2.4-5.1V11.4c0-2.133-1.017-4-3.05-5.6-2.033-1.6-3.95-2.4-5.75-2.4h-52z" fill="#FFF"/><path d="M33.1 18.4c.8 0 1.683.017 2.65.05.967.033 1.75.217 2.35.55.533.667 1.05 1.317 1.55 1.95s.85 1.483 1.05 2.55c-.6 1-1.167 1.967-1.7 2.9-.067.4-.133 1.267-.2 2.6-.067 1.333-.1 3.1-.1 5.3a29.636 29.636 0 0 1 6.75-1.45c2.367-.233 4.55-.417 6.55-.55 2.4 1 4.083 2.05 5.05 3.15.967 1.1 1.45 2.75 1.45 4.95 0 2.267-.433 4.717-1.3 7.35s-1.85 4.533-2.95 5.7c-1.1 1.167-2.283 1.983-3.55 2.45-.533-.933-.767-1.733-.7-2.4-1.533 1.067-3.333 1.75-5.4 2.05-2.067.3-4 .517-5.8.65a540.57 540.57 0 0 0-.3 11.2c-.067 3.933-.1 7.133-.1 9.6 0 1.333-.15 2.917-.45 4.75-.3 1.833-.817 3.25-1.55 4.25-.667-.467-1.15-1.8-1.45-4-.3-2.2-.45-5.867-.45-11l-.1-14.1c-.533 0-1.083.017-1.65.05s-1.283.05-2.15.05c-1.133 0-2.167-.067-3.1-.2-.4 1.067-1.3 1.6-2.7 1.6-.467 0-1.083-.083-1.85-.25-.767-.167-1.567-.917-2.4-2.25s-1.6-3.383-2.3-6.15c-.7-2.767-1.417-5.617-2.15-8.55-.733-2.933-1.1-4.6-1.1-5l2.3.1c1.933 1 3.2 1.85 3.8 2.55.6.7 1.033 1.217 1.3 1.55 1.733-1 3.667-2.05 5.8-3.15s4.133-1.883 6-2.35l-.1-10.4c0-1.867-.5-3.433-1.5-4.7l.5-1.4zm15 19.3c-2.133 0-3.967.133-5.5.4-1.467.4-2.667.7-3.6.9 0 .733-.033 2.133-.1 4.2a157.08 157.08 0 0 0-.1 4.4c0 1.667.033 2.767.1 3.3.6-.133 1.55-.2 2.85-.2s2.383-.033 3.25-.1h2.55l1.85.1c.533-1.2 1.117-3.2 1.75-6s.95-4.4.95-4.8c0-1.467-1.333-2.2-4-2.2zm-24.7 4.5c.4 1.933.9 3.6 1.5 5s1.083 2.717 1.45 3.95.717 2.15 1.05 2.75a14.43 14.43 0 0 1 3.1-1.3c1.133-.333 2.3-.667 3.5-1l.1-12.3a82.924 82.924 0 0 0-5.95 1.05c-2.033.433-3.617 1.05-4.75 1.85z" fill="#F00"/></g></svg>