<svg width="76" height="100" viewBox="0 0 76 100" xmlns="http://www.w3.org/2000/svg"><title>m3</title><g fill="none" fill-rule="evenodd"><path d="M9.2.3h57.2c2.2 0 4.217 1.083 6.05 3.25C74.283 5.717 75.2 7.6 75.2 9.2v82.3c0 2.2-.967 4.15-2.9 5.85-1.933 1.7-3.6 2.55-5 2.55H8.7c-2.067 0-3.983-1.033-5.75-3.1S.3 92.533.3 90.2V10.5c0-2.667.967-5.033 2.9-7.1C5.133 1.333 7.133.3 9.2.3zm2.6 3.1c-2.133 0-4.133.967-6 2.9C3.933 8.233 3 10.067 3 11.8v77.1c0 2 .817 3.817 2.45 5.45 1.633 1.633 3.317 2.45 5.05 2.45h55c1.533 0 3.1-.8 4.7-2.4 1.6-1.6 2.4-3.3 2.4-5.1V11.4c0-2.133-1.017-4-3.05-5.6-2.033-1.6-3.95-2.4-5.75-2.4h-52z" fill="#FFF"/><path d="M11.8 3.4c-2.133 0-4.133.967-6 2.9C3.933 8.233 3 10.067 3 11.8v77.1c0 2 .817 3.817 2.45 5.45 1.633 1.633 3.317 2.45 5.05 2.45h55c1.533 0 3.1-.8 4.7-2.4 1.6-1.6 2.4-3.3 2.4-5.1V11.4c0-2.133-1.017-4-3.05-5.6-2.033-1.6-3.95-2.4-5.75-2.4h-52z" fill="#FFF"/><path d="M45.8 13.3c.333 0 .817.117 1.45.35.633.233 1.083.517 1.35.85.267.333.4.733.4 1.2a6.46 6.46 0 0 1-.15 1.45c-.1.433-1.1.8-3 1.1-1.9.3-3.817.583-5.75.85l-9.5 1c-2.267 0-3.933-.233-5-.7-1.067-.467-1.733-1.433-2-2.9.4-.133 2.55-.333 6.45-.6 3.9-.267 6.5-.5 7.8-.7 1.3-.2 2.767-.567 4.4-1.1 1.633-.533 2.817-.8 3.55-.8zm-6.4 13c1.867 0 2.8.733 2.8 2.2l-.1 2.1c-3.467 0-6.05.1-7.75.3-1.7.2-3.317.4-4.85.6-.4-.333-.767-.667-1.1-1a2.068 2.068 0 0 1-.6-1.2l.1-1a1687 1687 0 0 0 7.5-1.45c1.867-.367 3.2-.55 4-.55zm13.7 10.2c1.467.267 2.717.75 3.75 1.45s1.55 1.65 1.55 2.85c0 .8-.117 1.267-.35 1.4-.233.133-.817.2-1.75.2-2.667 0-5.633-.083-8.9-.25-3.267-.167-5.7-.25-7.3-.25-5.533 0-9.867.2-13 .6-3.733 1-6.367 1.6-7.9 1.8-.933.133-1.95-.233-3.05-1.1-1.1-.867-1.65-1.9-1.65-3.1 3.067-.2 6.483-.433 10.25-.7a342.69 342.69 0 0 0 10.55-.9l17.8-2z" fill="#000"/><path d="M42.2 62.8l-2.3.2-2.7.5.3 2.2c.333-.133.767-.2 1.3-.2.467 0 1.267.2 2.4.6l-.1.7-2.1 1c-1 .267-1.533.467-1.6.6-.067.133-.067.533 0 1.2l4.2-.3c.267-.267.567-.533.9-.8.2-1 .3-1.833.3-2.5 0-.8-.2-1.867-.6-3.2zM34 68.6l-2.6.3c-.4 1-.3 1.667.3 2 .8-.267 1.6-.567 2.4-.9l-.1-1.4zm2.6 10.9c.2-.067.917-.183 2.15-.35 1.233-.167 2.05-.35 2.45-.55l-.1-2.3c-.533-.2-1.267-.15-2.2.15-.933.3-1.633.45-2.1.45-.133.533-.2 1-.2 1.4v1.2zm9.5-3.2a7.487 7.487 0 0 0-1.2-.35c-.467-.1-.867-.117-1.2-.05l-.9.2c.333.267.6.633.8 1.1.2.467.433.933.7 1.4l.1 3.9c-1 .333-1.633.5-1.9.5l-1.2-.2-.4-2.6c-1.4.4-2.317.683-2.75.85-.433.167-1.15.583-2.15 1.25.733.267 2.017.65 3.85 1.15 1.833.5 2.983.717 3.45.65 1.067-.2 2.3-.45 3.7-.75 1.4-.3 2.1-1.117 2.1-2.45 0-1.467-.133-2.45-.4-2.95s-1.133-1.05-2.6-1.65zm-3.9-3.9c-.533-.267-1.167-.4-1.9-.4-1 0-2.1.267-3.3.8l-.2 2.2c.467-.067 1.767-.317 3.9-.75s3.967-.65 5.5-.65c2.6 0 4.55.45 5.85 1.35 1.3.9 1.95 2.583 1.95 5.05 0 2.067-.833 3.8-2.5 5.2-1.667 1.4-3.633 2.1-5.9 2.1-1.667 0-3.333-.433-5-1.3L35 82.6c-.533.4-1.183.65-1.95.75-.767.1-1.483.217-2.15.35-.333-.267-.783-.683-1.35-1.25-.567-.567-.817-1.217-.75-1.95.6-.067 1.633-.15 3.1-.25s2.3-.15 2.5-.15l-.1-2.8c-1.6.333-2.95.6-4.05.8-1.1.2-2.517.533-4.25 1 .6 1.533 1.083 2.817 1.45 3.85s.55 1.817.55 2.35c0 1.733-.6 2.6-1.8 2.6-.733 0-1.25-.55-1.55-1.65a74.75 74.75 0 0 1-.8-3.2 60.15 60.15 0 0 1-.65-3.35 32.715 32.715 0 0 0-3.15.55c-1.033.233-1.65.35-1.85.35-.267 0-.667-.067-1.2-.2 1.267-.6 2.317-1 3.15-1.2.833-.2 1.683-.4 2.55-.6l-.5-1.1-.6-1.5-.4-1.6c1.333.467 2.217.95 2.65 1.45.433.5.883 1.183 1.35 2.05l9-2.3V74l-3.6.8c.333-.133.867-.433 1.6-.9.733-.467 1.333-.733 1.8-.8-.067-.4-.033-.767.1-1.1-1 .2-1.883.367-2.65.5-.767.133-1.117.433-1.05.9-.333 0-.633-.083-.9-.25a4.568 4.568 0 0 1-.8-.65c-.333 0-.5-.3-.5-.9.133-1 .2-1.767.2-2.3-.4-.933-.833-1.917-1.3-2.95-.467-1.033-.7-1.683-.7-1.95.2-.133.4-.233.6-.3.2-.067.4-.1.6-.1.267 0 .55.083.85.25.3.167.667.467 1.1.9.433.433.717.833.85 1.2s.233.65.3.85c.267 0 .667-.083 1.2-.25.533-.167 1.233-.45 2.1-.85v-1.6l-3.4.1a3.57 3.57 0 0 1-.3-.9c1.2-.933 2.65-1.717 4.35-2.35 1.7-.633 2.733-1.383 3.1-2.25s.667-1.533.9-2a3.11 3.11 0 0 0 .35-1.4c-1.4.2-2.683.4-3.85.6-1.167.2-2.217.567-3.15 1.1.733.933 1.033 1.767.9 2.5-.133.733-.6 1.1-1.4 1.1-.8-.4-1.25-.667-1.35-.8-.1-.133-.217-.9-.35-2.3-1-.133-1.7-.167-2.1-.1-1.2.333-2.033.55-2.5.65-.467.1-.967.15-1.5.15-.6 0-1.4-.233-2.4-.7l-1.4-1.6 2.2-.2 3.4.2c1.2 0 2.233-.167 3.1-.5.133-.533.1-1.167-.1-1.9-.2-.733-.3-1.167-.3-1.3 0-.467.167-.867.5-1.2.2-.4.467-.7.8-.9.333-.2.633-.4.9-.6l.7.8c.067.267.117.667.15 1.2.033.533.083 1.1.15 1.7 0 .867.2 1.4.6 1.6 1.2-.333 2.517-.683 3.95-1.05 1.433-.367 2.583-.517 3.45-.45l.1-1.8a4.646 4.646 0 0 0-1.45-2.2c-.7-.6-1.117-1.2-1.25-1.8.133-.8.9-1.2 2.3-1.2.533 0 1.2.083 2 .25.8.167 1.367.483 1.7.95a4.4 4.4 0 0 1 .7 1.5l-.3 3.7 3.3-.4c.867 0 1.767-.033 2.7-.1.933-.067 1.5-.1 1.7-.1l2 .2c.333.133.7.633 1.1 1.5l-.1 2.1c-1.067.267-2.033.4-2.9.4-.2 0-1.217-.15-3.05-.45-1.833-.3-3.517-.45-5.05-.45-.333 0-.717.367-1.15 1.1-.433.733-1.15 1.8-2.15 3.2.333.133.817.167 1.45.1s1.283-.133 1.95-.2c1.2 0 1.933.1 2.2.3.267.2.4.867.4 2v1.8c0 2-.083 3.567-.25 4.7-.167 1.133-.517 1.967-1.05 2.5l-2.1 1.1z" fill="#F00"/></g></svg>