<svg width="76" height="100" viewBox="0 0 76 100" xmlns="http://www.w3.org/2000/svg"><title>m5r</title><g fill="none" fill-rule="evenodd"><path d="M9.2.3h57.2c2.2 0 4.217 1.083 6.05 3.25C74.283 5.717 75.2 7.6 75.2 9.2v82.3c0 2.2-.967 4.15-2.9 5.85-1.933 1.7-3.6 2.55-5 2.55H8.7c-2.067 0-3.983-1.033-5.75-3.1S.3 92.533.3 90.2V10.5c0-2.667.967-5.033 2.9-7.1C5.133 1.333 7.133.3 9.2.3zm2.6 3.1c-2.133 0-4.133.967-6 2.9C3.933 8.233 3 10.067 3 11.8v77.1c0 2 .817 3.817 2.45 5.45 1.633 1.633 3.317 2.45 5.05 2.45h55c1.533 0 3.1-.8 4.7-2.4 1.6-1.6 2.4-3.3 2.4-5.1V11.4c0-2.133-1.017-4-3.05-5.6-2.033-1.6-3.95-2.4-5.75-2.4h-52z" fill="#FFF"/><path d="M11.8 3.4c-2.133 0-4.133.967-6 2.9C3.933 8.233 3 10.067 3 11.8v77.1c0 2 .817 3.817 2.45 5.45 1.633 1.633 3.317 2.45 5.05 2.45h55c1.533 0 3.1-.8 4.7-2.4 1.6-1.6 2.4-3.3 2.4-5.1V11.4c0-2.133-1.017-4-3.05-5.6-2.033-1.6-3.95-2.4-5.75-2.4h-52z" fill="#FFF"/><path d="M48.6 13.6c1.533 0 2.45.35 2.75 1.05.3.7.5 1.233.6 1.6.1.367-.017.65-.35.85l-2.7 1.2a315.3 315.3 0 0 0-2.9.7c-.533.133-1.467.2-2.8.2 0 .2.15.367.45.5.3.133.45.267.45.4-.133 1.2-.35 2.217-.65 3.05-.3.833-.683 1.883-1.15 3.15.6 0 1.517-.167 2.75-.5 1.233-.333 2.017-.5 2.35-.5.733 0 1.9.35 3.5 1.05 1.6.7 2.567 1.25 2.9 1.65.333.4.517.717.55.95.033.233-.05.55-.25.95-.133.2-.383.4-.75.6-.367.2-.75.733-1.15 1.6-.4.867-.817 1.867-1.25 3-.433 1.133-.75 2-.95 2.6v1.5c.067 0 .733-.133 2-.4s2-.367 2.2-.3c1.4.267 2.317.55 2.75.85.433.3 1.15 1.05 2.15 2.25l-.4 1.9c-.4.067-.85.117-1.35.15-.5.033-1.15.05-1.95.05-.533 0-1.433-.1-2.7-.3-1.267-.2-2.167-.3-2.7-.3-2.133 0-4.117.05-5.95.15-1.833.1-3.25.217-4.25.35-2.4 0-4.25.167-5.55.5-1.3.333-2.65.7-4.05 1.1-.733 0-1.367-.233-1.9-.7-.533-.467-1.1-1.133-1.7-2-.667 1.267-1.167 2.1-1.5 2.5-.333.4-.7.6-1.1.6a8.924 8.924 0 0 1-1.95-1.35c-.633-.567-.95-1.45-.95-2.65l1.6-9.2.1-3.9a686.73 686.73 0 0 0-4.3 5.9c-1.733 2.4-3.433 3.967-5.1 4.7 3.533-5.467 6.35-10.35 8.45-14.65 2.1-4.3 3.15-7.817 3.15-10.55h2.2c1.333.4 2.7 1.033 4.1 1.9 0 .4-.1.767-.3 1.1l-1.2.9a154.244 154.244 0 0 1-2.65 4.65c-.7 1.167-1.317 1.983-1.85 2.45.533.333 1.1.633 1.7.9a58.71 58.71 0 0 0-.55 4.7c-.1 1.4-.15 3.067-.15 5 0 1.933.017 3.3.05 4.1.033.8.117 1.567.25 2.3.667-.133 1.717-.283 3.15-.45a37.631 37.631 0 0 1 4.35-.25 38.61 38.61 0 0 0 1-3.35c.333-1.3.6-2.617.8-3.95l.7-4.1-4.7.8c-.533-.2-.883-.533-1.05-1a34.863 34.863 0 0 0-.45-1.2l7-1.2.7-7.3c-.333.067-.683.1-1.05.1h-.75c-1.067 0-1.833-.2-2.3-.6-.467-.4-.933-1.3-1.4-2.7.867-.133 2.1-.267 3.7-.4s3.35-.367 5.25-.7c1.9-.333 3.333-.65 4.3-.95.967-.3 1.883-.65 2.75-1.05zm-1.9 15.2c-.733-.2-1.4-.3-2-.3-.733 0-1.35.067-1.85.2s-.917.233-1.25.3a719.78 719.78 0 0 1-1.15 5.9c-.567 2.867-.917 4.733-1.05 5.6l6-1c.267-1.267.533-2.483.8-3.65.267-1.167.4-2.65.4-4.45l.1-2.6zm-4.5 34l-2.3.2-2.7.5.3 2.2c.333-.133.767-.2 1.3-.2.467 0 1.267.2 2.4.6l-.1.7-2.1 1c-1 .267-1.533.467-1.6.6-.067.133-.067.533 0 1.2l4.2-.3c.267-.267.567-.533.9-.8.2-1 .3-1.833.3-2.5 0-.8-.2-1.867-.6-3.2zM34 68.6l-2.6.3c-.4 1-.3 1.667.3 2 .8-.267 1.6-.567 2.4-.9l-.1-1.4zm2.6 10.9c.2-.067.917-.183 2.15-.35 1.233-.167 2.05-.35 2.45-.55l-.1-2.3c-.533-.2-1.267-.15-2.2.15-.933.3-1.633.45-2.1.45-.133.533-.2 1-.2 1.4v1.2zm9.5-3.2a7.487 7.487 0 0 0-1.2-.35c-.467-.1-.867-.117-1.2-.05l-.9.2c.333.267.6.633.8 1.1.2.467.433.933.7 1.4l.1 3.9c-1 .333-1.633.5-1.9.5l-1.2-.2-.4-2.6c-1.4.4-2.317.683-2.75.85-.433.167-1.15.583-2.15 1.25.733.267 2.017.65 3.85 1.15 1.833.5 2.983.717 3.45.65 1.067-.2 2.3-.45 3.7-.75 1.4-.3 2.1-1.117 2.1-2.45 0-1.467-.133-2.45-.4-2.95s-1.133-1.05-2.6-1.65zm-3.9-3.9c-.533-.267-1.167-.4-1.9-.4-1 0-2.1.267-3.3.8l-.2 2.2c.467-.067 1.767-.317 3.9-.75s3.967-.65 5.5-.65c2.6 0 4.55.45 5.85 1.35 1.3.9 1.95 2.583 1.95 5.05 0 2.067-.833 3.8-2.5 5.2-1.667 1.4-3.633 2.1-5.9 2.1-1.667 0-3.333-.433-5-1.3L35 82.6c-.533.4-1.183.65-1.95.75-.767.1-1.483.217-2.15.35-.333-.267-.783-.683-1.35-1.25-.567-.567-.817-1.217-.75-1.95.6-.067 1.633-.15 3.1-.25s2.3-.15 2.5-.15l-.1-2.8c-1.6.333-2.95.6-4.05.8-1.1.2-2.517.533-4.25 1 .6 1.533 1.083 2.817 1.45 3.85s.55 1.817.55 2.35c0 1.733-.6 2.6-1.8 2.6-.733 0-1.25-.55-1.55-1.65a74.75 74.75 0 0 1-.8-3.2 60.15 60.15 0 0 1-.65-3.35 32.715 32.715 0 0 0-3.15.55c-1.033.233-1.65.35-1.85.35-.267 0-.667-.067-1.2-.2 1.267-.6 2.317-1 3.15-1.2.833-.2 1.683-.4 2.55-.6l-.5-1.1-.6-1.5-.4-1.6c1.333.467 2.217.95 2.65 1.45.433.5.883 1.183 1.35 2.05l9-2.3V74l-3.6.8c.333-.133.867-.433 1.6-.9.733-.467 1.333-.733 1.8-.8-.067-.4-.033-.767.1-1.1-1 .2-1.883.367-2.65.5-.767.133-1.117.433-1.05.9-.333 0-.633-.083-.9-.25a4.568 4.568 0 0 1-.8-.65c-.333 0-.5-.3-.5-.9.133-1 .2-1.767.2-2.3-.4-.933-.833-1.917-1.3-2.95-.467-1.033-.7-1.683-.7-1.95.2-.133.4-.233.6-.3.2-.067.4-.1.6-.1.267 0 .55.083.85.25.3.167.667.467 1.1.9.433.433.717.833.85 1.2s.233.65.3.85c.267 0 .667-.083 1.2-.25.533-.167 1.233-.45 2.1-.85v-1.6l-3.4.1a3.57 3.57 0 0 1-.3-.9c1.2-.933 2.65-1.717 4.35-2.35 1.7-.633 2.733-1.383 3.1-2.25s.667-1.533.9-2a3.11 3.11 0 0 0 .35-1.4c-1.4.2-2.683.4-3.85.6-1.167.2-2.217.567-3.15 1.1.733.933 1.033 1.767.9 2.5-.133.733-.6 1.1-1.4 1.1-.8-.4-1.25-.667-1.35-.8-.1-.133-.217-.9-.35-2.3-1-.133-1.7-.167-2.1-.1-1.2.333-2.033.55-2.5.65-.467.1-.967.15-1.5.15-.6 0-1.4-.233-2.4-.7l-1.4-1.6 2.2-.2 3.4.2c1.2 0 2.233-.167 3.1-.5.133-.533.1-1.167-.1-1.9-.2-.733-.3-1.167-.3-1.3 0-.467.167-.867.5-1.2.2-.4.467-.7.8-.9.333-.2.633-.4.9-.6l.7.8c.067.267.117.667.15 1.2.033.533.083 1.1.15 1.7 0 .867.2 1.4.6 1.6 1.2-.333 2.517-.683 3.95-1.05 1.433-.367 2.583-.517 3.45-.45l.1-1.8a4.646 4.646 0 0 0-1.45-2.2c-.7-.6-1.117-1.2-1.25-1.8.133-.8.9-1.2 2.3-1.2.533 0 1.2.083 2 .25.8.167 1.367.483 1.7.95a4.4 4.4 0 0 1 .7 1.5l-.3 3.7 3.3-.4c.867 0 1.767-.033 2.7-.1.933-.067 1.5-.1 1.7-.1l2 .2c.333.133.7.633 1.1 1.5l-.1 2.1c-1.067.267-2.033.4-2.9.4-.2 0-1.217-.15-3.05-.45-1.833-.3-3.517-.45-5.05-.45-.333 0-.717.367-1.15 1.1-.433.733-1.15 1.8-2.15 3.2.333.133.817.167 1.45.1s1.283-.133 1.95-.2c1.2 0 1.933.1 2.2.3.267.2.4.867.4 2v1.8c0 2-.083 3.567-.25 4.7-.167 1.133-.517 1.967-1.05 2.5l-2.1 1.1z" fill="#F00"/></g></svg>