<svg width="76" height="100" viewBox="0 0 76 100" xmlns="http://www.w3.org/2000/svg"><title>p1</title><g fill="none" fill-rule="evenodd"><path d="M9.2.3h57.2c2.2 0 4.217 1.083 6.05 3.25C74.283 5.717 75.2 7.6 75.2 9.2v82.3c0 2.2-.967 4.15-2.9 5.85-1.933 1.7-3.6 2.55-5 2.55H8.7c-2.067 0-3.983-1.033-5.75-3.1S.3 92.533.3 90.2V10.5c0-2.667.967-5.033 2.9-7.1C5.133 1.333 7.133.3 9.2.3zm2.6 3.1c-2.133 0-4.133.967-6 2.9C3.933 8.233 3 10.067 3 11.8v77.1c0 2 .817 3.817 2.45 5.45 1.633 1.633 3.317 2.45 5.05 2.45h55c1.533 0 3.1-.8 4.7-2.4 1.6-1.6 2.4-3.3 2.4-5.1V11.4c0-2.133-1.017-4-3.05-5.6-2.033-1.6-3.95-2.4-5.75-2.4h-52z" fill="#FFF"/><path d="M11.8 3.4c-2.133 0-4.133.967-6 2.9C3.933 8.233 3 10.067 3 11.8v77.1c0 2 .817 3.817 2.45 5.45 1.633 1.633 3.317 2.45 5.05 2.45h55c1.533 0 3.1-.8 4.7-2.4 1.6-1.6 2.4-3.3 2.4-5.1V11.4c0-2.133-1.017-4-3.05-5.6-2.033-1.6-3.95-2.4-5.75-2.4h-52z" fill="#FFF"/><path d="M38 22.7c7.533 0 13.917 2.683 19.15 8.05C62.383 36.117 65 42.567 65 50.1c0 7.467-2.617 13.917-7.85 19.35-5.233 5.433-11.65 8.15-19.25 8.15-7.467 0-13.95-2.5-19.45-7.5S10.2 58.4 10.2 50c0-8.4 2.683-15.05 8.05-19.95C23.617 25.15 30.2 22.7 38 22.7zm0 1.8c-7.267 0-13.433 2.333-18.5 7S11.9 42.333 11.9 50c0 7.467 2.55 13.617 7.65 18.45 5.1 4.833 11.217 7.25 18.35 7.25 7.067 0 13.05-2.45 17.95-7.35 4.9-4.9 7.35-10.983 7.35-18.25 0-7.467-2.467-13.6-7.4-18.4-4.933-4.8-10.867-7.2-17.8-7.2zm0 3.3c6 0 11.167 2.133 15.5 6.4S60 43.767 60 50.1c0 6.267-2.033 11.533-6.1 15.8-4.067 4.267-9.4 6.4-16 6.4-6.467 0-11.817-2.117-16.05-6.35C17.617 61.717 15.5 56.4 15.5 50c0-6.267 2.1-11.533 6.3-15.8 4.2-4.267 9.6-6.4 16.2-6.4zM38 48c1.333 0 2 .667 2 2s-.667 2-2 2-2-.667-2-2 .667-2 2-2zm1.1-6.3l1.5-10.5c0-.733-.233-1.217-.7-1.45-.467-.233-1.1-.35-1.9-.35-1.6 0-2.4.6-2.4 1.8l1.5 10.5h2zm-3 .1l-2.6-10.1c-.333-.667-.833-1-1.5-1-.4 0-1.033.2-1.9.6-.867.4-1.3.967-1.3 1.7l.2.8 5.9 8.6 1.2-.6zm5.1.6l6.1-8.5c.333-.667.333-1.2 0-1.6-.333-.4-.817-.75-1.45-1.05-.633-.3-1.217-.45-1.75-.45-.6 0-1.033.333-1.3 1L40 41.9l1.2.5zm-11 3.7l-9.6-4.6c-.667-.2-1.183-.117-1.55.25s-.65.833-.85 1.4c-.2.567-.3 1.083-.3 1.55 0 .733.4 1.233 1.2 1.5L29.5 48l.7-1.9zm-.9 2.9l-10.4-.6c-.533.067-.917.25-1.15.55-.233.3-.35 1.017-.35 2.15.067.733.233 1.3.5 1.7.267.4.8.567 1.6.5l10-2.9-.2-1.4zm2.2-4.6l-6.2-8.5a1.637 1.637 0 0 0-1.2-.5c-.2 0-.483.083-.85.25-.367.167-.783.55-1.25 1.15-.467.6-.7 1.133-.7 1.6 0 .4.2.8.6 1.2l8.7 5.8.9-1zm.5 11.2l-7.3 7.7c-.267.333-.4.667-.4 1 0 .4.1.717.3.95.2.233.583.583 1.15 1.05.567.467 1.15.7 1.75.7.467 0 .867-.267 1.2-.8l4.9-9.3-1.6-1.3zm2.5 1.8l-3.8 9.7c-.133.8.067 1.35.6 1.65.533.3 1.033.517 1.5.65.733.067 1.333.033 1.8-.1.467-.133.8-.567 1-1.3l.3-10.4-1.4-.2zm-3.6-3.3l-10.1 3c-.6.333-.9.833-.9 1.5 0 .467.267 1.117.8 1.95s1.1 1.25 1.7 1.25c.267 0 .567-.1.9-.3l8.2-6.5-.6-.9zM46 48.4l10.5-1.8c.8-.267 1.2-.8 1.2-1.6 0-.533-.1-1.067-.3-1.6a3.732 3.732 0 0 0-.85-1.35c-.367-.367-.917-.417-1.65-.15l-9.5 4.6.6 1.9zm-1-2.8l8.8-5.6c.467-.4.7-.8.7-1.2 0-.4-.35-.983-1.05-1.75-.7-.767-1.317-1.15-1.85-1.15-.467 0-.867.167-1.2.5l-6.3 8.3.9.9zm1 5.1l10 3.1c.933.133 1.5-.067 1.7-.6.2-.533.3-1.1.3-1.7.067-.267.05-.733-.05-1.4-.1-.667-.55-1.067-1.35-1.2l-10.5.5-.1 1.3zM41.8 57l5 9.4c.333.533.8.8 1.4.8.467 0 .95-.2 1.45-.6.5-.4.867-.717 1.1-.95.233-.233.35-.617.35-1.15 0-.4-.133-.767-.4-1.1l-7.3-7.6-1.6 1.2zm2.3-1.8l8.1 6.6c.4.2.733.3 1 .3.6 0 1.133-.433 1.6-1.3.467-.867.7-1.5.7-1.9 0-.6-.3-1.067-.9-1.4L44.7 54l-.6 1.2zm-4.5 2.5l.1 10.5c.267.933.833 1.4 1.7 1.4.267 0 .683-.05 1.25-.15a3.385 3.385 0 0 0 1.5-.65c.433-.333.583-.867.45-1.6l-3.7-9.8-1.3.3z" fill="#000"/><path d="M38 45.2c-1.4 0-2.567.433-3.5 1.3-.933.867-1.4 2.033-1.4 3.5 0 1.4.483 2.55 1.45 3.45.967.9 2.117 1.35 3.45 1.35 1.333 0 2.433-.467 3.3-1.4.867-.933 1.3-2.067 1.3-3.4 0-1.267-.417-2.383-1.25-3.35-.833-.967-1.95-1.45-3.35-1.45z" fill="#F00"/></g></svg>