<svg width="76" height="100" viewBox="0 0 76 100" xmlns="http://www.w3.org/2000/svg"><title>p2</title><g fill="none" fill-rule="evenodd"><path d="M9.2.3h57.2c2.2 0 4.217 1.083 6.05 3.25C74.283 5.717 75.2 7.6 75.2 9.2v82.3c0 2.2-.967 4.15-2.9 5.85-1.933 1.7-3.6 2.55-5 2.55H8.7c-2.067 0-3.983-1.033-5.75-3.1S.3 92.533.3 90.2V10.5c0-2.667.967-5.033 2.9-7.1C5.133 1.333 7.133.3 9.2.3zm2.6 3.1c-2.133 0-4.133.967-6 2.9C3.933 8.233 3 10.067 3 11.8v77.1c0 2 .817 3.817 2.45 5.45 1.633 1.633 3.317 2.45 5.05 2.45h55c1.533 0 3.1-.8 4.7-2.4 1.6-1.6 2.4-3.3 2.4-5.1V11.4c0-2.133-1.017-4-3.05-5.6-2.033-1.6-3.95-2.4-5.75-2.4h-52z" fill="#FFF"/><path d="M11.8 3.4c-2.133 0-4.133.967-6 2.9C3.933 8.233 3 10.067 3 11.8v77.1c0 2 .817 3.817 2.45 5.45 1.633 1.633 3.317 2.45 5.05 2.45h55c1.533 0 3.1-.8 4.7-2.4 1.6-1.6 2.4-3.3 2.4-5.1V11.4c0-2.133-1.017-4-3.05-5.6-2.033-1.6-3.95-2.4-5.75-2.4h-52z" fill="#FFF"/><path d="M38 16c4.133 0 7.567 1.4 10.3 4.2 2.733 2.8 4.1 6.233 4.1 10.3 0 4-1.383 7.417-4.15 10.25C45.483 43.583 42.067 45 38 45c-3.933 0-7.35-1.35-10.25-4.05-2.9-2.7-4.35-6.217-4.35-10.55 0-4.4 1.4-7.9 4.2-10.5C30.4 17.3 33.867 16 38 16zm0 .6c-3.933 0-7.233 1.267-9.9 3.8-2.667 2.533-4 5.867-4 10 0 3.933 1.4 7.167 4.2 9.7 2.8 2.533 6.033 3.8 9.7 3.8 3.867 0 7.117-1.25 9.75-3.75s3.95-5.717 3.95-9.65c0-4-1.35-7.317-4.05-9.95-2.7-2.633-5.917-3.95-9.65-3.95zm0 1.8c3.267 0 6.05 1.15 8.35 3.45 2.3 2.3 3.45 5.183 3.45 8.65 0 3.267-1.117 6.05-3.35 8.35S41.4 42.3 38 42.3c-3.333 0-6.133-1.167-8.4-3.5-2.267-2.333-3.4-5.133-3.4-8.4 0-3.4 1.117-6.25 3.35-8.55 2.233-2.3 5.05-3.45 8.45-3.45zm0 9.4c-1.667 0-2.5.867-2.5 2.6 0 .6.267 1.167.8 1.7.533.533 1.1.8 1.7.8 1.667 0 2.5-.867 2.5-2.6 0-1.667-.833-2.5-2.5-2.5zm.9-1.1l3.5-5.1c-1-1.467-2.467-2.2-4.4-2.2-1.533 0-2.9.733-4.1 2.2l3 5.1 1.1-.2c.4 0 .633.033.7.1.067.067.133.1.2.1zm-4 1.4l-3.6-4.5c-1.667.667-2.7 1.6-3.1 2.8-.4 1.2-.6 2.1-.6 2.7 0 1.067.233 1.967.7 2.7l5.8-1.3v-1.1c.067-.467.333-.9.8-1.3zm0 4.7l-5.7 2c.133 1.067.367 1.933.7 2.6.333.667.967 1.2 1.9 1.6.933.667 2.1 1 3.5 1 .533 0 .933-.033 1.2-.1l.4-5.8c-.6-.067-1.033-.167-1.3-.3l-.7-1zm6.9-2.4l6.1 1.5c.533-.933.8-1.9.8-2.9 0-.467-.183-1.267-.55-2.4-.367-1.133-1.45-2.067-3.25-2.8l-3.8 4.3c.467.333.7.667.7 1v1.3zm-2.9 3.7l.4 5.8c.533.2 1.067.3 1.6.3 1.2 0 2.267-.4 3.2-1.2.733-.333 1.317-.867 1.75-1.6.433-.733.75-1.6.95-2.6l-5.9-2.1-.5.9c-.133.2-.35.317-.65.35-.3.033-.583.083-.85.15zm-1 21c4.133 0 7.567 1.4 10.3 4.2 2.733 2.8 4.1 6.233 4.1 10.3 0 4-1.383 7.417-4.15 10.25-2.767 2.833-6.183 4.25-10.25 4.25-3.933 0-7.35-1.35-10.25-4.05-2.9-2.7-4.35-6.217-4.35-10.55 0-4.4 1.4-7.9 4.2-10.5 2.8-2.6 6.267-3.9 10.4-3.9zm0 .6c-3.933 0-7.233 1.267-9.9 3.8-2.667 2.533-4 5.867-4 10 0 3.933 1.4 7.167 4.2 9.7 2.8 2.533 6.033 3.8 9.7 3.8 3.867 0 7.117-1.25 9.75-3.75s3.95-5.717 3.95-9.65c0-4-1.35-7.317-4.05-9.95-2.7-2.633-5.917-3.95-9.65-3.95zm0 1.8c3.267 0 6.05 1.15 8.35 3.45 2.3 2.3 3.45 5.183 3.45 8.65 0 3.267-1.117 6.05-3.35 8.35S41.3 81.4 37.9 81.4c-3.333 0-6.133-1.167-8.4-3.5-2.267-2.333-3.4-5.133-3.4-8.4 0-3.4 1.117-6.25 3.35-8.55 2.233-2.3 5.05-3.45 8.45-3.45zm0 9.4c-1.667 0-2.5.867-2.5 2.6 0 .6.267 1.167.8 1.7.533.533 1.1.8 1.7.8 1.667 0 2.5-.867 2.5-2.6 0-1.667-.833-2.5-2.5-2.5zm.9-1.1l3.5-5.1c-1-1.467-2.467-2.2-4.4-2.2-1.533 0-2.9.733-4.1 2.2l3 5.1 1.1-.2c.4 0 .633.033.7.1.067.067.133.1.2.1zm-4 1.4l-3.6-4.5c-1.667.667-2.7 1.6-3.1 2.8-.4 1.2-.6 2.1-.6 2.7 0 1.067.233 1.967.7 2.7l5.8-1.3v-1.1c.067-.467.333-.9.8-1.3zm0 4.7l-5.7 2c.133 1.067.367 1.933.7 2.6.333.667.967 1.2 1.9 1.6.933.667 2.1 1 3.5 1 .533 0 .933-.033 1.2-.1l.4-5.8c-.6-.067-1.033-.167-1.3-.3l-.7-1zm6.9-2.4l6.1 1.5c.533-.933.8-1.9.8-2.9 0-.467-.183-1.267-.55-2.4-.367-1.133-1.45-2.067-3.25-2.8L41 67.2c.467.333.7.667.7 1v1.3zm-2.9 3.7l.4 5.8c.533.2 1.067.3 1.6.3 1.2 0 2.267-.4 3.2-1.2.733-.333 1.317-.867 1.75-1.6.433-.733.75-1.6.95-2.6l-5.9-2.1-.5.9c-.133.2-.35.317-.65.35-.3.033-.583.083-.85.15z" fill="#000"/></g></svg>