<svg width="76" height="100" viewBox="0 0 76 100" xmlns="http://www.w3.org/2000/svg"><title>p3</title><g fill="none" fill-rule="evenodd"><path d="M9.2.3h57.2c2.2 0 4.217 1.083 6.05 3.25C74.283 5.717 75.2 7.6 75.2 9.2v82.3c0 2.2-.967 4.15-2.9 5.85-1.933 1.7-3.6 2.55-5 2.55H8.7c-2.067 0-3.983-1.033-5.75-3.1S.3 92.533.3 90.2V10.5c0-2.667.967-5.033 2.9-7.1C5.133 1.333 7.133.3 9.2.3zm2.6 3.1c-2.133 0-4.133.967-6 2.9C3.933 8.233 3 10.067 3 11.8v77.1c0 2 .817 3.817 2.45 5.45 1.633 1.633 3.317 2.45 5.05 2.45h55c1.533 0 3.1-.8 4.7-2.4 1.6-1.6 2.4-3.3 2.4-5.1V11.4c0-2.133-1.017-4-3.05-5.6-2.033-1.6-3.95-2.4-5.75-2.4h-52z" fill="#FFF"/><path d="M11.8 3.4c-2.133 0-4.133.967-6 2.9C3.933 8.233 3 10.067 3 11.8v77.1c0 2 .817 3.817 2.45 5.45 1.633 1.633 3.317 2.45 5.05 2.45h55c1.533 0 3.1-.8 4.7-2.4 1.6-1.6 2.4-3.3 2.4-5.1V11.4c0-2.133-1.017-4-3.05-5.6-2.033-1.6-3.95-2.4-5.75-2.4h-52z" fill="#FFF"/><path d="M21.6 14.8c3.133 0 5.767 1.1 7.9 3.3 2.133 2.2 3.2 4.867 3.2 8 0 3-1.083 5.617-3.25 7.85-2.167 2.233-4.783 3.35-7.85 3.35-3.067 0-5.733-1.033-8-3.1-2.267-2.067-3.4-4.8-3.4-8.2 0-3.467 1.1-6.2 3.3-8.2 2.2-2 4.9-3 8.1-3zm0 .6c-3 0-5.533.967-7.6 2.9-2.067 1.933-3.1 4.5-3.1 7.7 0 3.067 1.05 5.583 3.15 7.55 2.1 1.967 4.617 2.95 7.55 2.95s5.417-.983 7.45-2.95c2.033-1.967 3.05-4.45 3.05-7.45 0-3.133-1.033-5.7-3.1-7.7s-4.533-3-7.4-3zm0 1.3c2.533 0 4.683.883 6.45 2.65 1.767 1.767 2.65 4.017 2.65 6.75 0 2.533-.85 4.683-2.55 6.45-1.7 1.767-3.883 2.65-6.55 2.65-2.6 0-4.783-.883-6.55-2.65-1.767-1.767-2.65-3.95-2.65-6.55 0-2.6.867-4.8 2.6-6.6 1.733-1.8 3.933-2.7 6.6-2.7zm0 7.2c-.533 0-1 .2-1.4.6-.4.4-.6.9-.6 1.5 0 .467.217.917.65 1.35.433.433.883.65 1.35.65 1.333 0 2-.7 2-2.1 0-1.333-.667-2-2-2zm.7-.7l2.7-4c-.933-1.133-2.067-1.7-3.4-1.7-1.333 0-2.4.567-3.2 1.7l2.3 4 .9-.2c.267 0 .433.033.5.1s.133.1.2.1zm-3.2 1l-2.7-3.5c-1.4.6-2.267 1.567-2.6 2.9-.2.4-.3.867-.3 1.4 0 .667.167 1.333.5 2l4.6-.9v-.9c.133-.467.233-.733.3-.8l.2-.2zm0 3.7l-4.4 1.5c.133.8.333 1.45.6 1.95.267.5.7.933 1.3 1.3.6.367 1.2.617 1.8.75.6.133 1.3.133 2.1 0l.2-4.6-1-.2-.6-.7zm5.4-1.9l4.7 1.1c.467-.733.7-1.433.7-2.1 0-.4-.15-1.033-.45-1.9-.3-.867-1.117-1.6-2.45-2.2l-3 3.3c.333.333.5.633.5.9v.9zm-2.2 2.8l.2 4.6c.533.133.967.2 1.3.2.933 0 1.767-.3 2.5-.9a3.637 3.637 0 0 0 1.4-1.35 5.89 5.89 0 0 0 .7-1.95l-4.5-1.6-.4.7c-.133.067-.3.117-.5.15-.2.033-.433.083-.7.15zm32.5 33.5c3.133 0 5.767 1.1 7.9 3.3 2.133 2.2 3.2 4.867 3.2 8 0 3-1.083 5.617-3.25 7.85-2.167 2.233-4.783 3.35-7.85 3.35-3.067 0-5.733-1.033-8-3.1-2.267-2.067-3.4-4.8-3.4-8.2 0-3.467 1.1-6.2 3.3-8.2 2.2-2 4.9-3 8.1-3zm0 .6c-3 0-5.533.967-7.6 2.9-2.067 1.933-3.1 4.5-3.1 7.7 0 3.067 1.05 5.583 3.15 7.55 2.1 1.967 4.617 2.95 7.55 2.95s5.417-.983 7.45-2.95c2.033-1.967 3.05-4.45 3.05-7.45 0-3.133-1.033-5.7-3.1-7.7s-4.533-3-7.4-3zm0 1.3c2.533 0 4.683.883 6.45 2.65 1.767 1.767 2.65 4.017 2.65 6.75 0 2.533-.85 4.683-2.55 6.45-1.7 1.767-3.883 2.65-6.55 2.65-2.6 0-4.783-.883-6.55-2.65-1.767-1.767-2.65-3.95-2.65-6.55 0-2.6.867-4.8 2.6-6.6 1.733-1.8 3.933-2.7 6.6-2.7zm0 7.2c-.533 0-1 .2-1.4.6-.4.4-.6.9-.6 1.5 0 .467.217.917.65 1.35.433.433.883.65 1.35.65 1.333 0 2-.7 2-2.1 0-1.333-.667-2-2-2zm.7-.7l2.7-4c-.933-1.133-2.067-1.7-3.4-1.7-1.333 0-2.4.567-3.2 1.7l2.3 4 .9-.2c.267 0 .433.033.5.1s.133.1.2.1zm-3.2 1l-2.7-3.5c-1.4.6-2.267 1.567-2.6 2.9-.2.4-.3.867-.3 1.4 0 .667.167 1.333.5 2l4.6-.9v-.9c.133-.467.233-.733.3-.8l.2-.2zm0 3.7l-4.4 1.5c.133.8.333 1.45.6 1.95.267.5.7.933 1.3 1.3.6.367 1.2.617 1.8.75.6.133 1.3.133 2.1 0l.2-4.6-1-.2-.6-.7zm5.4-1.9l4.7 1.1c.467-.733.7-1.433.7-2.1 0-.4-.15-1.033-.45-1.9-.3-.867-1.117-1.6-2.45-2.2l-3 3.3c.333.333.5.633.5.9v.9zm-2.2 2.8l.2 4.6c.533.133.967.2 1.3.2.933 0 1.767-.3 2.5-.9a3.637 3.637 0 0 0 1.4-1.35 5.89 5.89 0 0 0 .7-1.95l-4.5-1.6-.4.7c-.133.067-.3.117-.5.15-.2.033-.433.083-.7.15z" fill="#000"/><path d="M37.9 38.9c3.133 0 5.767 1.1 7.9 3.3 2.133 2.2 3.2 4.867 3.2 8 0 3-1.083 5.617-3.25 7.85-2.167 2.233-4.783 3.35-7.85 3.35-3.067 0-5.733-1.033-8-3.1-2.267-2.067-3.4-4.8-3.4-8.2 0-3.467 1.1-6.2 3.3-8.2 2.2-2 4.9-3 8.1-3zm0 .6c-3 0-5.533.967-7.6 2.9-2.067 1.933-3.1 4.5-3.1 7.7 0 3.067 1.05 5.583 3.15 7.55 2.1 1.967 4.617 2.95 7.55 2.95s5.417-.983 7.45-2.95c2.033-1.967 3.05-4.45 3.05-7.45 0-3.133-1.033-5.7-3.1-7.7s-4.533-3-7.4-3zm0 1.3c2.533 0 4.683.883 6.45 2.65C46.117 45.217 47 47.467 47 50.2c0 2.533-.85 4.683-2.55 6.45-1.7 1.767-3.883 2.65-6.55 2.65-2.6 0-4.783-.883-6.55-2.65-1.767-1.767-2.65-3.95-2.65-6.55 0-2.6.867-4.8 2.6-6.6 1.733-1.8 3.933-2.7 6.6-2.7zm0 7.2c-.533 0-1 .2-1.4.6-.4.4-.6.9-.6 1.5 0 .467.217.917.65 1.35.433.433.883.65 1.35.65 1.333 0 2-.7 2-2.1 0-1.333-.667-2-2-2zm.7-.7l2.7-4c-.933-1.133-2.067-1.7-3.4-1.7-1.333 0-2.4.567-3.2 1.7l2.3 4 .9-.2c.267 0 .433.033.5.1s.133.1.2.1zm-3.2 1l-2.7-3.5c-1.4.6-2.267 1.567-2.6 2.9-.2.4-.3.867-.3 1.4 0 .667.167 1.333.5 2l4.6-.9v-.9c.133-.467.233-.733.3-.8l.2-.2zm0 3.7L31 53.5c.133.8.333 1.45.6 1.95.267.5.7.933 1.3 1.3.6.367 1.2.617 1.8.75.6.133 1.3.133 2.1 0l.2-4.6-1-.2-.6-.7zm5.4-1.9l4.7 1.1c.467-.733.7-1.433.7-2.1 0-.4-.15-1.033-.45-1.9-.3-.867-1.117-1.6-2.45-2.2l-3 3.3c.333.333.5.633.5.9v.9zm-2.2 2.8l.2 4.6c.533.133.967.2 1.3.2.933 0 1.767-.3 2.5-.9a3.637 3.637 0 0 0 1.4-1.35 5.89 5.89 0 0 0 .7-1.95l-4.5-1.6-.4.7c-.133.067-.3.117-.5.15-.2.033-.433.083-.7.15z" fill="#F00"/></g></svg>