<svg width="76" height="100" viewBox="0 0 76 100" xmlns="http://www.w3.org/2000/svg"><title>p6</title><g fill="none" fill-rule="evenodd"><path d="M9.2.3h57.2c2.2 0 4.217 1.083 6.05 3.25C74.283 5.717 75.2 7.6 75.2 9.2v82.3c0 2.2-.967 4.15-2.9 5.85-1.933 1.7-3.6 2.55-5 2.55H8.7c-2.067 0-3.983-1.033-5.75-3.1S.3 92.533.3 90.2V10.5c0-2.667.967-5.033 2.9-7.1C5.133 1.333 7.133.3 9.2.3zm2.6 3.1c-2.133 0-4.133.967-6 2.9C3.933 8.233 3 10.067 3 11.8v77.1c0 2 .817 3.817 2.45 5.45 1.633 1.633 3.317 2.45 5.05 2.45h55c1.533 0 3.1-.8 4.7-2.4 1.6-1.6 2.4-3.3 2.4-5.1V11.4c0-2.133-1.017-4-3.05-5.6-2.033-1.6-3.95-2.4-5.75-2.4h-52z" fill="#FFF"/><path d="M11.8 3.4c-2.133 0-4.133.967-6 2.9C3.933 8.233 3 10.067 3 11.8v77.1c0 2 .817 3.817 2.45 5.45 1.633 1.633 3.317 2.45 5.05 2.45h55c1.533 0 3.1-.8 4.7-2.4 1.6-1.6 2.4-3.3 2.4-5.1V11.4c0-2.133-1.017-4-3.05-5.6-2.033-1.6-3.95-2.4-5.75-2.4h-52z" fill="#FFF"/><path d="M52.7 14.3c2.867 0 5.267 1 7.2 3 1.933 2 2.9 4.433 2.9 7.3 0 2.733-.983 5.117-2.95 7.15-1.967 2.033-4.35 3.05-7.15 3.05-2.733 0-5.15-.95-7.25-2.85-2.1-1.9-3.15-4.383-3.15-7.45 0-3.133 1.017-5.617 3.05-7.45 2.033-1.833 4.483-2.75 7.35-2.75zm0 .6c-2.667 0-4.95.883-6.85 2.65-1.9 1.767-2.85 4.083-2.85 6.95 0 2.8.95 5.083 2.85 6.85 1.9 1.767 4.183 2.65 6.85 2.65s4.917-.883 6.75-2.65c1.833-1.767 2.75-4.017 2.75-6.75 0-2.867-.933-5.2-2.8-7-1.867-1.8-4.1-2.7-6.7-2.7zm0 1.1c2.267 0 4.217.817 5.85 2.45C60.183 20.083 61 22.133 61 24.6c0 2.267-.783 4.217-2.35 5.85-1.567 1.633-3.55 2.45-5.95 2.45-2.4 0-4.4-.8-6-2.4-1.6-1.6-2.4-3.6-2.4-6s.783-4.417 2.35-6.05C48.217 16.817 50.233 16 52.7 16zm0 6.6c-1.2 0-1.8.633-1.8 1.9 0 .467.183.883.55 1.25.367.367.783.55 1.25.55 1.2 0 1.8-.633 1.8-1.9 0-1.2-.6-1.8-1.8-1.8zm.7-.7l2.3-3.6c-.8-1-1.8-1.5-3-1.5-1.133 0-2.133.5-3 1.5l2.1 3.6.9-.2c.267 0 .433.033.5.1s.133.1.2.1zm-3 1l-2.5-3.2c-1.267.533-2 1.167-2.2 1.9-.2.733-.3 1.367-.3 1.9 0 .333.017.617.05.85.033.233.15.617.35 1.15l4.1-.9v-.9c.067-.267.233-.533.5-.8zm0 3.3l-4 1.4c.2 1.333.667 2.25 1.4 2.75.733.5 1.533.783 2.4.85.867.067 1.333.1 1.4.1l.2-4.2-.8-.2-.6-.7zm5-1.7l4.2 1.1c.4-.8.6-1.5.6-2.1 0-.4-.133-.967-.4-1.7s-1-1.4-2.2-2l-2.7 3.1c.333.267.5.5.5.7v.9zm-2 2.6l.2 4.2c.2.067.533.1 1 .1.733 0 1.55-.3 2.45-.9.9-.6 1.517-1.567 1.85-2.9l-4.1-1.5-.4.7a.94.94 0 0 1-.55.25c-.233.033-.383.05-.45.05zM22.7 14.3c2.867 0 5.267 1 7.2 3 1.933 2 2.9 4.433 2.9 7.3 0 2.733-.983 5.117-2.95 7.15-1.967 2.033-4.35 3.05-7.15 3.05-2.733 0-5.15-.95-7.25-2.85-2.1-1.9-3.15-4.383-3.15-7.45 0-3.133 1.017-5.617 3.05-7.45 2.033-1.833 4.483-2.75 7.35-2.75zm0 .6c-2.667 0-4.95.883-6.85 2.65-1.9 1.767-2.85 4.083-2.85 6.95 0 2.8.95 5.083 2.85 6.85 1.9 1.767 4.183 2.65 6.85 2.65s4.917-.883 6.75-2.65c1.833-1.767 2.75-4.017 2.75-6.75 0-2.867-.933-5.2-2.8-7-1.867-1.8-4.1-2.7-6.7-2.7zm0 1.1c2.267 0 4.217.817 5.85 2.45C30.183 20.083 31 22.133 31 24.6c0 2.267-.783 4.217-2.35 5.85-1.567 1.633-3.55 2.45-5.95 2.45-2.4 0-4.4-.8-6-2.4-1.6-1.6-2.4-3.6-2.4-6s.783-4.417 2.35-6.05C18.217 16.817 20.233 16 22.7 16zm0 6.6c-1.2 0-1.8.633-1.8 1.9 0 .467.183.883.55 1.25.367.367.783.55 1.25.55 1.2 0 1.8-.633 1.8-1.9 0-1.2-.6-1.8-1.8-1.8zm.7-.7l2.3-3.6c-.8-1-1.8-1.5-3-1.5-1.133 0-2.133.5-3 1.5l2.1 3.6.9-.2c.267 0 .433.033.5.1s.133.1.2.1zm-3 1l-2.5-3.2c-1.267.533-2 1.167-2.2 1.9-.2.733-.3 1.367-.3 1.9 0 .333.017.617.05.85.033.233.15.617.35 1.15l4.1-.9v-.9c.067-.267.233-.533.5-.8zm0 3.3l-4 1.4c.2 1.333.667 2.25 1.4 2.75.733.5 1.533.783 2.4.85.867.067 1.333.1 1.4.1l.2-4.2-.8-.2-.6-.7zm5-1.7l4.2 1.1c.4-.8.6-1.5.6-2.1 0-.4-.133-.967-.4-1.7s-1-1.4-2.2-2l-2.7 3.1c.333.267.5.5.5.7v.9zm-2 2.6l.2 4.2c.2.067.533.1 1 .1.733 0 1.55-.3 2.45-.9.9-.6 1.517-1.567 1.85-2.9l-4.1-1.5-.4.7a.94.94 0 0 1-.55.25c-.233.033-.383.05-.45.05z" fill="#000"/><path d="M52.4 68c2.867 0 5.267 1 7.2 3 1.933 2 2.9 4.433 2.9 7.3 0 2.733-.983 5.117-2.95 7.15-1.967 2.033-4.35 3.05-7.15 3.05-2.733 0-5.15-.95-7.25-2.85-2.1-1.9-3.15-4.383-3.15-7.45 0-3.133 1.017-5.617 3.05-7.45C47.083 68.917 49.533 68 52.4 68zm0 .6c-2.667 0-4.95.883-6.85 2.65-1.9 1.767-2.85 4.083-2.85 6.95 0 2.8.95 5.083 2.85 6.85 1.9 1.767 4.183 2.65 6.85 2.65s4.917-.883 6.75-2.65c1.833-1.767 2.75-4.017 2.75-6.75 0-2.867-.933-5.2-2.8-7-1.867-1.8-4.1-2.7-6.7-2.7zm0 1.1c2.267 0 4.217.817 5.85 2.45 1.633 1.633 2.45 3.683 2.45 6.15 0 2.267-.783 4.217-2.35 5.85-1.567 1.633-3.55 2.45-5.95 2.45-2.4 0-4.4-.8-6-2.4-1.6-1.6-2.4-3.6-2.4-6s.783-4.417 2.35-6.05c1.567-1.633 3.583-2.45 6.05-2.45zm0 6.6c-1.2 0-1.8.633-1.8 1.9 0 .467.183.883.55 1.25.367.367.783.55 1.25.55 1.2 0 1.8-.633 1.8-1.9 0-1.2-.6-1.8-1.8-1.8zm.7-.7l2.3-3.6c-.8-1-1.8-1.5-3-1.5-1.133 0-2.133.5-3 1.5l2.1 3.6.9-.2c.267 0 .433.033.5.1s.133.1.2.1zm-3 1l-2.5-3.2c-1.267.533-2 1.167-2.2 1.9-.2.733-.3 1.367-.3 1.9 0 .333.017.617.05.85.033.233.15.617.35 1.15l4.1-.9v-.9c.067-.267.233-.533.5-.8zm0 3.3l-4 1.4c.2 1.333.667 2.25 1.4 2.75.733.5 1.533.783 2.4.85.867.067 1.333.1 1.4.1l.2-4.2-.8-.2-.6-.7zm5-1.7l4.2 1.1c.4-.8.6-1.5.6-2.1 0-.4-.133-.967-.4-1.7s-1-1.4-2.2-2l-2.7 3.1c.333.267.5.5.5.7v.9zm-2 2.6l.2 4.2c.2.067.533.1 1 .1.733 0 1.55-.3 2.45-.9.9-.6 1.517-1.567 1.85-2.9l-4.1-1.5-.4.7c-.133.133-.317.2-.55.2-.233 0-.383.033-.45.1zm-.8-33c2.867 0 5.267 1 7.2 3 1.933 2 2.9 4.433 2.9 7.3 0 2.733-.983 5.05-2.95 6.95-1.967 1.9-4.35 2.85-7.15 2.85-2.8 0-5.233-.883-7.3-2.65s-3.1-4.183-3.1-7.25c0-3.133 1.017-5.617 3.05-7.45 2.033-1.833 4.483-2.75 7.35-2.75zm0 .6c-2.667 0-4.95.883-6.85 2.65-1.9 1.767-2.85 4.083-2.85 6.95 0 2.8.95 5.017 2.85 6.65 1.9 1.633 4.183 2.45 6.85 2.45s4.917-.817 6.75-2.45c1.833-1.633 2.75-3.817 2.75-6.55 0-2.867-.933-5.2-2.8-7-1.867-1.8-4.1-2.7-6.7-2.7zm0 1.1c2.267 0 4.217.817 5.85 2.45 1.633 1.633 2.45 3.683 2.45 6.15 0 2.267-.783 4.217-2.35 5.85-1.567 1.633-3.55 2.45-5.95 2.45-2.4 0-4.4-.8-6-2.4-1.6-1.6-2.4-3.6-2.4-6s.783-4.417 2.35-6.05c1.567-1.633 3.583-2.45 6.05-2.45zm0 6.6c-1.2 0-1.8.633-1.8 1.9 0 .467.183.883.55 1.25.367.367.783.55 1.25.55 1.2 0 1.8-.633 1.8-1.9 0-1.2-.6-1.8-1.8-1.8zm.7-.7l2.3-3.6c-.8-1-1.8-1.5-3-1.5-1.133 0-2.133.5-3 1.5l2.1 3.6.9-.2c.267 0 .433.033.5.1s.133.1.2.1zm-3 1l-2.5-3.2c-1.267.533-2 1.167-2.2 1.9-.2.733-.3 1.367-.3 1.9 0 .333.017.617.05.85.033.233.15.617.35 1.15l4.1-.9v-.9c.067-.267.233-.533.5-.8zm0 3.3l-4 1.4c.2 1.333.667 2.25 1.4 2.75.733.5 1.533.783 2.4.85.867.067 1.333.1 1.4.1l.2-4.2-.8-.2-.6-.7zm5-1.7l4.2 1.1c.4-.8.6-1.5.6-2.1 0-.4-.133-.967-.4-1.7s-1-1.4-2.2-2l-2.7 3.1c.333.267.5.5.5.7v.9zm-2 2.6l.2 4.2c.2.067.533.1 1 .1.733 0 1.55-.3 2.45-.9.9-.6 1.517-1.567 1.85-2.9l-4.1-1.5-.4.7a.94.94 0 0 1-.55.25c-.233.033-.383.05-.45.05zM22.4 68c2.867 0 5.267 1 7.2 3 1.933 2 2.9 4.433 2.9 7.3 0 2.733-.983 5.117-2.95 7.15-1.967 2.033-4.35 3.05-7.15 3.05-2.733 0-5.15-.95-7.25-2.85-2.1-1.9-3.15-4.383-3.15-7.45 0-3.133 1.017-5.617 3.05-7.45C17.083 68.917 19.533 68 22.4 68zm0 .6c-2.667 0-4.95.883-6.85 2.65-1.9 1.767-2.85 4.083-2.85 6.95 0 2.8.95 5.083 2.85 6.85 1.9 1.767 4.183 2.65 6.85 2.65s4.917-.883 6.75-2.65c1.833-1.767 2.75-4.017 2.75-6.75 0-2.867-.933-5.2-2.8-7-1.867-1.8-4.1-2.7-6.7-2.7zm0 1.1c2.267 0 4.217.817 5.85 2.45 1.633 1.633 2.45 3.683 2.45 6.15 0 2.267-.783 4.217-2.35 5.85-1.567 1.633-3.55 2.45-5.95 2.45-2.4 0-4.4-.8-6-2.4-1.6-1.6-2.4-3.6-2.4-6s.783-4.417 2.35-6.05c1.567-1.633 3.583-2.45 6.05-2.45zm0 6.6c-1.2 0-1.8.633-1.8 1.9 0 .467.183.883.55 1.25.367.367.783.55 1.25.55 1.2 0 1.8-.633 1.8-1.9 0-1.2-.6-1.8-1.8-1.8zm.7-.7l2.3-3.6c-.8-1-1.8-1.5-3-1.5-1.133 0-2.133.5-3 1.5l2.1 3.6.9-.2c.267 0 .433.033.5.1s.133.1.2.1zm-3 1l-2.5-3.2c-1.267.533-2 1.167-2.2 1.9-.2.733-.3 1.367-.3 1.9 0 .333.017.617.05.85.033.233.15.617.35 1.15l4.1-.9v-.9c.067-.267.233-.533.5-.8zm0 3.3l-4 1.4c.2 1.333.667 2.25 1.4 2.75.733.5 1.533.783 2.4.85.867.067 1.333.1 1.4.1l.2-4.2-.8-.2-.6-.7zm5-1.7l4.2 1.1c.4-.8.6-1.5.6-2.1 0-.4-.133-.967-.4-1.7s-1-1.4-2.2-2l-2.7 3.1c.333.267.5.5.5.7v.9zm-2 2.6l.2 4.2c.2.067.533.1 1 .1.733 0 1.55-.3 2.45-.9.9-.6 1.517-1.567 1.85-2.9l-4.1-1.5-.4.7c-.133.133-.317.2-.55.2-.233 0-.383.033-.45.1zm-.8-33c2.867 0 5.267 1 7.2 3 1.933 2 2.9 4.433 2.9 7.3 0 2.733-.983 5.05-2.95 6.95-1.967 1.9-4.35 2.85-7.15 2.85-2.8 0-5.233-.883-7.3-2.65s-3.1-4.183-3.1-7.25c0-3.133 1.017-5.617 3.05-7.45 2.033-1.833 4.483-2.75 7.35-2.75zm0 .6c-2.667 0-4.95.883-6.85 2.65-1.9 1.767-2.85 4.083-2.85 6.95 0 2.8.95 5.017 2.85 6.65 1.9 1.633 4.183 2.45 6.85 2.45s4.917-.817 6.75-2.45c1.833-1.633 2.75-3.817 2.75-6.55 0-2.867-.933-5.2-2.8-7-1.867-1.8-4.1-2.7-6.7-2.7zm0 1.1c2.267 0 4.217.817 5.85 2.45 1.633 1.633 2.45 3.683 2.45 6.15 0 2.267-.783 4.217-2.35 5.85-1.567 1.633-3.55 2.45-5.95 2.45-2.4 0-4.4-.8-6-2.4-1.6-1.6-2.4-3.6-2.4-6s.783-4.417 2.35-6.05c1.567-1.633 3.583-2.45 6.05-2.45zm0 6.6c-1.2 0-1.8.633-1.8 1.9 0 .467.183.883.55 1.25.367.367.783.55 1.25.55 1.2 0 1.8-.633 1.8-1.9 0-1.2-.6-1.8-1.8-1.8zm.7-.7l2.3-3.6c-.8-1-1.8-1.5-3-1.5-1.133 0-2.133.5-3 1.5l2.1 3.6.9-.2c.267 0 .433.033.5.1s.133.1.2.1zm-3 1l-2.5-3.2c-1.267.533-2 1.167-2.2 1.9-.2.733-.3 1.367-.3 1.9 0 .333.017.617.05.85.033.233.15.617.35 1.15l4.1-.9v-.9c.067-.267.233-.533.5-.8zm0 3.3l-4 1.4c.2 1.333.667 2.25 1.4 2.75.733.5 1.533.783 2.4.85.867.067 1.333.1 1.4.1l.2-4.2-.8-.2-.6-.7zm5-1.7l4.2 1.1c.4-.8.6-1.5.6-2.1 0-.4-.133-.967-.4-1.7s-1-1.4-2.2-2l-2.7 3.1c.333.267.5.5.5.7v.9zm-2 2.6l.2 4.2c.2.067.533.1 1 .1.733 0 1.55-.3 2.45-.9.9-.6 1.517-1.567 1.85-2.9l-4.1-1.5-.4.7a.94.94 0 0 1-.55.25c-.233.033-.383.05-.45.05z" fill="#F00"/></g></svg>