<svg width="76" height="100" viewBox="0 0 76 100" xmlns="http://www.w3.org/2000/svg"><title>s1</title><g fill="none" fill-rule="evenodd"><path d="M9.2.3h57.2c2.2 0 4.217 1.083 6.05 3.25C74.283 5.717 75.2 7.6 75.2 9.2v82.3c0 2.2-.967 4.15-2.9 5.85-1.933 1.7-3.6 2.55-5 2.55H8.7c-2.067 0-3.983-1.033-5.75-3.1S.3 92.533.3 90.2V10.5c0-2.667.967-5.033 2.9-7.1C5.133 1.333 7.133.3 9.2.3zm2.6 3.1c-2.133 0-4.133.967-6 2.9C3.933 8.233 3 10.067 3 11.8v77.1c0 2 .817 3.817 2.45 5.45 1.633 1.633 3.317 2.45 5.05 2.45h55c1.533 0 3.1-.8 4.7-2.4 1.6-1.6 2.4-3.3 2.4-5.1V11.4c0-2.133-1.017-4-3.05-5.6-2.033-1.6-3.95-2.4-5.75-2.4h-52z" fill="#FFF"/><path d="M11.8 3.4c-2.133 0-4.133.967-6 2.9C3.933 8.233 3 10.067 3 11.8v77.1c0 2 .817 3.817 2.45 5.45 1.633 1.633 3.317 2.45 5.05 2.45h55c1.533 0 3.1-.8 4.7-2.4 1.6-1.6 2.4-3.3 2.4-5.1V11.4c0-2.133-1.017-4-3.05-5.6-2.033-1.6-3.95-2.4-5.75-2.4h-52z" fill="#FFF"/><path d="M36.4 10.6c1 .467 1.783 1.5 2.35 3.1.567 1.6 1.05 3.167 1.45 4.7l1.1-.1c0-1.2-.1-2.433-.3-3.7-.2-1.267-.5-2.167-.9-2.7l.6-1.4c.8 1.2 1.3 2.517 1.5 3.95.2 1.433.367 2.783.5 4.05l1.2.5c0-.6.033-1.3.1-2.1s.167-1.667.3-2.6c0-.8-.167-1.333-.5-1.6l1.1-.9c.333.667.5 1.533.5 2.6a38.09 38.09 0 0 1-.1 2.9c-.067.867-.133 1.667-.2 2.4.667-1 1.167-1.983 1.5-2.95.333-.967.4-1.683.2-2.15l1.1-.5c.067.267.1.7.1 1.3 0 .733-.133 1.5-.4 2.3.667.8 1 1.6 1 2.4V22l1-.3c.067-1.2.1-2.033.1-2.5 0-1.2-.3-2.5-.9-3.9l.1-1.4c1.133.467 1.75 1.65 1.85 3.55.1 1.9.183 3.317.25 4.25l1-.2c.333-1.533.5-2.9.5-4.1 0-1.133-.2-2.167-.6-3.1.067-.467.183-.717.35-.75.167-.033.35-.083.55-.15.533 1.2.8 2.9.8 5.1 0 1.2-.1 2.4-.3 3.6l.9.7c.867-2.133 1.367-3.45 1.5-3.95s.133-1.183 0-2.05l1.1-.4c.133.333.2.833.2 1.5 0 .867-.283 2-.85 3.4s-.75 2.267-.55 2.6c.533-.4 1.05-1.083 1.55-2.05.5-.967.85-1.883 1.05-2.75l1.1.6c0 .467-.233 1.1-.7 1.9-.467.8-.7 1.3-.7 1.5.2.2.383.45.55.75.167.3.25.783.25 1.45 0 .933-.267 1.967-.8 3.1l1.4-.1c.133-.733.367-1.8.7-3.2.333-1.4.5-2.333.5-2.8 0-.533-.1-.9-.3-1.1l.6-1.1c.467.333.7.967.7 1.9 0 1.2-.117 2.4-.35 3.6-.233 1.2-.417 2.2-.55 3l1.1.7c.533-1.2.867-2.15 1-2.85.133-.7.267-1.817.4-3.35l1.2-.3c0 1.467-.1 2.617-.3 3.45-.2.833-.667 2.05-1.4 3.65.267.2.533.533.8 1 1-1.133 1.65-2.017 1.95-2.65.3-.633.417-1.25.35-1.85.667-.133 1.067-.267 1.2-.4.267 1.467-.667 3.533-2.8 6.2.867-.267 1.583-.6 2.15-1s1.25-1 2.05-1.8l.6 1.4c-.467.467-1.2 1.017-2.2 1.65A126.5 126.5 0 0 1 64.2 34c.2.6.15 1.317-.15 2.15s-.983 1.617-2.05 2.35c-1.067.733-2.333 1.1-3.8 1.1-.4 0-.7-.033-.9-.1l-1.1 2c.333.133.933.15 1.8.05.867-.1 1.867-.25 3-.45l-.1 1.3c-.4.133-1.2.25-2.4.35-1.2.1-2.3.183-3.3.25l-1 1.5a12.72 12.72 0 0 1 1.75-.3c.633-.067 1.35-.1 2.15-.1.8 0 1.367.033 1.7.1v1.3c2.8 0 4.667.533 5.6 1.6-1.4 2.067-2.95 4.417-4.65 7.05-1.7 2.633-2.983 4.717-3.85 6.25a27.383 27.383 0 0 0-2.1 4.65c-.533 1.567-1.117 2.85-1.75 3.85s-1.85 1.917-3.65 2.75c-1.8.833-3.667 1.683-5.6 2.55-.533 1.8-1.05 3.75-1.55 5.85-.5 2.1-.75 3.517-.75 4.25l1.2.5c.2.333.2.767 0 1.3-.533-.267-1.033-.4-1.5-.4.067 0 .1.367.1 1.1.133.2.883.7 2.25 1.5s2.15 1.3 2.35 1.5l-1.1 1.7a12.856 12.856 0 0 1-1.9-.85c-.533-.3-1.033-.583-1.5-.85-.267.333-.583.917-.95 1.75s-.583 1.383-.65 1.65l-1.6-.9c.533-1.533.7-2.6.5-3.2l-3.1.1.2-1.5c.733 0 1.9-.267 3.5-.8 0-2.4.117-4.383.35-5.95.233-1.567.717-3.483 1.45-5.75-.333 0-1.167.117-2.5.35-1.333.233-2.467.35-3.4.35h-1.6l-1.2-.4c-.333.8-.7 1.983-1.1 3.55-.4 1.567-.767 3.083-1.1 4.55 0 .2.133.333.4.4s.567.133.9.2l-.1 1.4c-.4 0-.767.033-1.1.1.067.6.033 1.033-.1 1.3l2.3 1.2c-.2.333-.417.717-.65 1.15-.233.433-.417.683-.55.75-.267.067-.5.033-.7-.1-.2-.133-.4-.3-.6-.5-.133.067-.317.567-.55 1.5l-.55 2.2c-.467-.133-.8-.233-1-.3-.2-.067-.433-.2-.7-.4.267-1.2.4-2.2.4-3-.733.133-1.4.267-2 .4-.6.133-1.567.2-2.9.2l-.4-1.7c2.267-.4 3.717-.667 4.35-.8.633-.133 1.117-.367 1.45-.7l.5-5 1.2-6.8-2.8-1.4-1.9-1.4c-.467.333-1.033.667-1.7 1-.667.333-1.5.5-2.5.5-2.6 0-4.333-.733-5.2-2.2s-1.9-3.7-3.1-6.7c-1.2-3-2.3-4.583-3.3-4.75-1-.167-1.5-.65-1.5-1.45 0-.867 1.167-1.733 3.5-2.6s5.433-1.3 9.3-1.3c0-.733.067-1.733.2-3s.2-2.033.2-2.3c0-.467-.067-.767-.2-.9s-.4-.1-.8.1c-.067.133-.317.683-.75 1.65-.433.967-.883 1.85-1.35 2.65l-.8-.5 1-4c-.733.267-1.733.9-3 1.9-.867.8-1.5 1.333-1.9 1.6l-1-1c2.267-1.8 3.817-4.1 4.65-6.9.833-2.8 1.883-4.567 3.15-5.3a130.79 130.79 0 0 0-2.7-1.65c-.733-.433-1.6-.85-2.6-1.25l.3-1.2 6.1 3.2-.5-3c-1-.067-1.867-.367-2.6-.9-.733-.533-1.333-1.117-1.8-1.75-.467-.633-.7-1.517-.7-2.65 0-.533.067-1.267.2-2.2-.6-1-1.433-1.6-2.5-1.8l.2-1.2c.667.067 1.217.267 1.65.6.433.333.85.7 1.25 1.1.133-.333.283-.567.45-.7.167-.133.283-.233.35-.3-.267-.867-.567-1.6-.9-2.2-.333-.6-.8-1.033-1.4-1.3v-1.2c.933 0 1.633.35 2.1 1.05.467.7.8 1.65 1 2.85l1-.6c-.2-1.267-.567-2.417-1.1-3.45-.533-1.033-1.067-1.85-1.6-2.45l.1-1.6c1.2.933 2.017 1.933 2.45 3 .433 1.067.883 2.5 1.35 4.3l1.4-.2c.067-.867.1-1.533.1-2 0-1.267-.267-2.333-.8-3.2l.4-1.6c.733.667 1.2 1.583 1.4 2.75.2 1.167.3 2.617.3 4.35l.5.4c.333-1 .517-1.633.55-1.9.033-.267.05-.933.05-2 .467 0 .933-.067 1.4-.2-.667-1.067-1.267-1.667-1.8-1.8v-1.3c.867.2 1.55.6 2.05 1.2.5.6.983 1.467 1.45 2.6l1.1-.8c-.267-2-.517-3.567-.75-4.7-.233-1.133-.617-1.767-1.15-1.9.067-.267.133-.567.2-.9.067-.333.067-.567 0-.7 1 .333 1.717 1.233 2.15 2.7.433 1.467.65 3.2.65 5.2l1.1-.3v-1.35l.1-1.85c0-1.6-.1-2.567-.3-2.9l.2-1.3c.6-.067.967.467 1.1 1.6.133 1.133.2 3.033.2 5.7l1.1.3.4-2 .2-2c0-.267-.067-.8-.2-1.6l.9-1c.4.6.6 1.3.6 2.1s-.033 1.4-.1 1.8c-.067.4-.3 1.4-.7 3l.7.6c.533-.867.883-1.567 1.05-2.1.167-.533.283-1 .35-1.4l-1.1-.8.5-1.3c.933.733 1.517 1.367 1.75 1.9.233.533.45 1.467.65 2.8l1.1-.6c-.2-1.333-.5-2.683-.9-4.05s-1.133-2.383-2.2-3.05l.6-1.1zm-10.7 15a3.1 3.1 0 0 1-.1-.75v-.45c.2-1.067.3-1.833.3-2.3 0-.4-.167-.9-.5-1.5a64.92 64.92 0 0 1-.3 2.2c-.067.4-.2 1.033-.4 1.9l1 .9zM57.3 24c-.533.533-.933 1.033-1.2 1.5.133.333.2.833.2 1.5s-.033 1.167-.1 1.5c.933-.733 1.4-1.8 1.4-3.2 0-.533-.1-.967-.3-1.3zm-20.8 3c-.2.467-.533.95-1 1.45-.467.5-1 .983-1.6 1.45l.3 2.4c.867-.467 1.567-.767 2.1-.9l.5 1.2-2.4 1.1v2.5l1.8-.7c.133.133.25.317.35.55.1.233.183.45.25.65L34.3 38l.1 2.9 1.6-.8c0 .733.283 1.517.85 2.35.567.833 1.25 1.45 2.05 1.85l.5-2.5c-.4-.4-.85-.883-1.35-1.45-.5-.567-.917-1.083-1.25-1.55l.8-1.2c.267.533.617.983 1.05 1.35.433.367.85.683 1.25.95-.067-.133.017-.567.25-1.3.233-.733.35-1.133.35-1.2-.2-.333-.533-.617-1-.85-.467-.233-.933-.45-1.4-.65l.5-1.3c.133-.2.45-.133.95.2.5.333.883.633 1.15.9l.3-2.5-2.4-1.5.6-1.1 2.1 1.2.1-2c-.867 0-1.867-.333-3-1s-1.767-1.267-1.9-1.8zm8.7 1.3c-.4.267-.833.517-1.3.75-.467.233-.833.383-1.1.45l-.2 2.6a16.19 16.19 0 0 1 1.45-.3c.433-.067.817-.133 1.15-.2l.3 1.1-2.9.9-.5 2.5 2.5-.8.2 1.1c-.467.267-.983.517-1.55.75-.567.233-1.05.383-1.45.45-.067.467-.117.9-.15 1.3-.033.4-.15.867-.35 1.4l1.5-.5 1.2-.5c.533.933.867 1.5 1 1.7.133.2.733.833 1.8 1.9.2-.333.333-.7.4-1.1.067-.4.133-.733.2-1a5.762 5.762 0 0 0-1.1-1.35c-.467-.433-.9-.85-1.3-1.25l1-1.1c.133.333.467.717 1 1.15.533.433.967.817 1.3 1.15 0-.4.2-1.3.6-2.7l-2.3-2.2.9-1 1.9 1.7.4-2.2c-1.267-.4-2.317-1-3.15-1.8a4.666 4.666 0 0 1-1.45-2.9zm-18.5.2c0 1.733-.233 2.967-.7 3.7-.4.467-.767.933-1.1 1.4l.8 2.1c.6-.067 1.05-.2 1.35-.4.3-.2.583-.467.85-.8l.6 1.1-.4.4 1.9 1 .6-1.2 2.2.6.1-2.3c-.467-.133-.983-.283-1.55-.45a5.141 5.141 0 0 1-1.55-.75l.6-1.1 2.4.9c-.133-1.2-.267-2.033-.4-2.5-.6.2-1.133.3-1.6.3-1.267 0-2.633-.667-4.1-2zm26.5 3.8c-.533.2-.917.333-1.15.4-.233.067-.55.167-.95.3l-.5 2.6 2.6-.1c-.133-.533-.2-1-.2-1.4 0-.733.067-1.333.2-1.8zm-29.4 1.8l-2 .6.4 2.2 2.1-.8-.5-2zm29.8 2.5l-3.5.4-.4 2.3 1.8-.3.1 1.3c-.333.133-.767.25-1.3.35-.533.1-.967.15-1.3.15l-.8 2.6 1.3-.3v1.6c-.467-.067-.7.067-.7.4 0 .267.267 1.1.8 2.5l1.8-1.8c0-.133-.033-.35-.1-.65-.067-.3-.5-1.083-1.3-2.35l1.1-.9c.2.467.4.95.6 1.45.2.5.467.883.8 1.15.2-.333.4-.633.6-.9.2-.267.5-.633.9-1.1l-1.7-3 1.2-.6c.267.4.517.817.75 1.25.233.433.483.717.75.85.2-.2.4-.55.6-1.05.2-.5.333-.817.4-.95a38.283 38.283 0 0 1-1.4-1.05 3.06 3.06 0 0 1-1-1.35zm-20.7 1.6l-2.5-.8c.667.6 1 1.317 1 2.15s.5 1.25 1.5 1.25v-2.6zm-6.2.4c-1.8-.4-3.517.183-5.15 1.75-1.633 1.567-2.45 3.417-2.45 5.55.8-.2 1.433-.3 1.9-.3 1 0 1.667.383 2 1.15.333.767.5 1.95.5 3.55 0 .533-.033 1.55-.1 3.05a84.6 84.6 0 0 0-.1 3.55c0 2.133.05 3.6.15 4.4.1.8.35 2.05.75 3.75a13.12 13.12 0 0 0 2.2 4.75c1.067 1.467 2.45 2.4 4.15 2.8 1.7.4 2.75.633 3.15.7.4.067 1 .1 1.8.1 1 0 1.9-.067 2.7-.2.8-.133 1.9-.467 3.3-1a9.049 9.049 0 0 1-3.1-3.35c-.733-1.367-1.1-3.017-1.1-4.95v-1.1c-.667-.467-1.633-1.3-2.9-2.5s-2.45-3.65-3.55-7.35c-1.1-3.7-1.683-6.933-1.75-9.7-.067-2.767-.867-4.317-2.4-4.65zm16.8 2.5c-.867.267-1.733.5-2.6.7l-.4 2.8 2.2-1.2.7 1.4c-.467.333-.5.733-.1 1.2.4.467.733.933 1 1.4.4-.533.783-1.067 1.15-1.6.367-.533.617-.933.75-1.2-.4-.4-.85-.95-1.35-1.65-.5-.7-.95-1.317-1.35-1.85zm-11.9 1.2c-.133.8-.117 1.467.05 2 .167.533.35.933.55 1.2l.5-2.7c-.467-.333-.833-.5-1.1-.5zm2.6.1l-.5 2.6c.733-.4 1.5-.833 2.3-1.3a12.55 12.55 0 0 1-.5-.65 3.269 3.269 0 0 1-.2-.35l.5-1-1.6.7zm2 1.4c.133.533.2.867.2 1 0 .533-.267.933-.8 1.2.133.133.383.467.75 1 .367.533.883 1 1.55 1.4l.4-2.2c-.2-.467-.9-1.267-2.1-2.4zm11.2 1.4l.6 1.9-1.7.3c.067-.267.2-.6.4-1s.433-.8.7-1.2zm-5.7.5c-.067.067-.317.167-.75.3a56.5 56.5 0 0 0-1.25.4l-.3 1.8c.467 0 .833-.067 1.1-.2.267-.133.533-.233.8-.3l.6 1.1-3.3 1.4-.7 2.1 2.2-.8.4 1-3.3 1.7-1.2 3.9 1.4 1.7c.2-1.8 1.15-3.483 2.85-5.05 1.7-1.567 2.75-3.117 3.15-4.65.133-.6 0-1.267-.4-2-.4-.733-.833-1.533-1.3-2.4zm11.2.2l-1.3 1.7c1-.467 2-.833 3-1.1l3-.8-4.7.2zm-18.7.8c-1.133.533-1.7 1.267-1.7 2.2 0 .4.033.733.1 1l1.1-.4 2.9 3.1.8-2.3-3.2-3.6zM44.4 52a40.395 40.395 0 0 0 2.5-1.75c.933-.7 1.333-1.35 1.2-1.95l-2.5 1-1.2 2.7zM36 54c-.2-.133-.667-.6-1.4-1.4-.733-.8-1.267-1.4-1.6-1.8 0 1.067.233 2.167.7 3.3.667 1.267 1.067 2.067 1.2 2.4.133-.4.283-.833.45-1.3.167-.467.383-.867.65-1.2zm-19.2 3.3c-.6.133-1.3.267-2.1.4s-1.733.467-2.8 1c1.133 1.4 1.933 2.5 2.4 3.3.467.8.967 2.133 1.5 4 .933-.8 1.767-1.283 2.5-1.45.733-.167 1.667-.25 2.8-.25-.333-1.933-.5-4.3-.5-7.1l-3.8.1zm28.8 6.1c-.8 0-1.567.017-2.3.05-.733.033-1.767.217-3.1.55 0 1.8.35 3.267 1.05 4.4.7 1.133 1.883 1.7 3.55 1.7 2.667 0 4.433-.433 5.3-1.3s1.4-2.033 1.6-3.5c-1.933-1.267-3.967-1.9-6.1-1.9zm-26.4 2.5c-.8.333-1.367.717-1.7 1.15-.333.433-.6.783-.8 1.05.333.6.75 1.283 1.25 2.05.5.767 1.417 1.15 2.75 1.15.267 0 .783-.167 1.55-.5.767-.333 1.217-.5 1.35-.5-.933-1.133-1.567-2.567-1.9-4.3l-2.5-.1zm6.1-8.4l1.5-.3c0 1.6.083 2.783.25 3.55.167.767.35 1.583.55 2.45l.8 2.6c.067-.133.1-.467.1-1v-2l1.1-1.1 4.2 5.5-1.4.9c-.4-.333-.817-.75-1.25-1.25-.433-.5-.75-.85-.95-1.05 0 .533.033 1.283.1 2.25.067.967.1 1.717.1 2.25-1-.867-1.717-1.533-2.15-2-.433-.467-.95-1.25-1.55-2.35-.6-1.1-.983-2.433-1.15-4a42.154 42.154 0 0 1-.25-4.45zM54 54.4c-1.267 1.733-2.05 2.9-2.35 3.5-.3.6-.983 2.067-2.05 4.4.267-.2 1.167.267 2.7 1.4a295.304 295.304 0 0 1 4.15-7.5 100.093 100.093 0 0 1 5.05-8c-.2-.067-.45-.117-.75-.15a15.494 15.494 0 0 0-3.7.15c-.833.133-2.133.7-3.9 1.7s-3.95 2.267-6.55 3.8c-2.6 1.533-4.767 3.133-6.5 4.8v3.7a4.4 4.4 0 0 1 1.8-.4h1.6c.533-1.533.933-2.7 1.2-3.5.267-.8.6-1.633 1-2.5.333.2.65.4.95.6.3.2.45.4.45.6-.267.6-.533 1.267-.8 2-.267.733-.5 1.533-.7 2.4l2.3.4c.8-2.733 2.467-5.8 5-9.2l1.1 1.8zm4.6-22.5c1.467 0 2.2.733 2.2 2.2 0 1.4-.733 2.1-2.2 2.1s-2.2-.7-2.2-2.1c0-1.467.733-2.2 2.2-2.2zM35.7 21.1l1-1.8c.067.333.1.667.1 1 0 .333-.233.767-.7 1.3l-.4-.5zM47 19.2c.267.6.4 1.3.4 2.1s-.167 1.5-.5 2.1c-.133-1.133-.433-2.067-.9-2.8l.55-.55.45-.85zm3.8 6.1c1.467 0 2.2.733 2.2 2.2 0 .533-.217 1.017-.65 1.45-.433.433-.95.65-1.55.65-.533 0-1.033-.2-1.5-.6-.467-.4-.7-.9-.7-1.5 0-1.467.733-2.2 2.2-2.2zm-9.7-3.5c1.467 0 2.2.733 2.2 2.2 0 .533-.217 1.017-.65 1.45-.433.433-.95.65-1.55.65-.533 0-1.033-.2-1.5-.6-.467-.4-.7-.9-.7-1.5 0-1.467.733-2.2 2.2-2.2zm-10 .8c1.467 0 2.2.733 2.2 2.2 0 .533-.217 1.017-.65 1.45-.433.433-.95.65-1.55.65-.533 0-1.033-.2-1.5-.6-.467-.4-.7-.9-.7-1.5 0-1.467.733-2.2 2.2-2.2zM21 27.2c1.467 0 2.2.733 2.2 2.2 0 .533-.217 1.017-.65 1.45-.433.433-.95.65-1.55.65-.533 0-1.033-.2-1.5-.6-.467-.4-.7-.9-.7-1.5 0-1.467.733-2.2 2.2-2.2zm.1-2.5c-1.267 0-2.35.417-3.25 1.25-.9.833-1.35 1.917-1.35 3.25 0 1.267.45 2.317 1.35 3.15.9.833 1.983 1.25 3.25 1.25s2.317-.417 3.15-1.25c.833-.833 1.25-1.883 1.25-3.15s-.433-2.333-1.3-3.2-1.9-1.3-3.1-1.3zm10.3-4.4c-1.267 0-2.35.417-3.25 1.25-.9.833-1.35 1.917-1.35 3.25 0 1.267.45 2.317 1.35 3.15.9.833 1.983 1.25 3.25 1.25s2.317-.417 3.15-1.25c.833-.833 1.25-1.883 1.25-3.15s-.433-2.333-1.3-3.2-1.9-1.3-3.1-1.3zm10.1-.8c-1.267 0-2.35.417-3.25 1.25-.9.833-1.35 1.917-1.35 3.25 0 1.267.45 2.317 1.35 3.15.9.833 1.983 1.25 3.25 1.25s2.317-.417 3.15-1.25c.833-.833 1.25-1.883 1.25-3.15s-.433-2.333-1.3-3.2-1.9-1.3-3.1-1.3zm9.5 3.4c-1.267 0-2.35.417-3.25 1.25-.9.833-1.35 1.917-1.35 3.25 0 1.267.45 2.317 1.35 3.15.9.833 1.983 1.25 3.25 1.25s2.317-.417 3.15-1.25c.833-.833 1.25-1.883 1.25-3.15s-.433-2.333-1.3-3.2-1.9-1.3-3.1-1.3zm7.7 6.7c-1.267 0-2.35.417-3.25 1.25-.9.833-1.35 1.917-1.35 3.25 0 1.267.45 2.317 1.35 3.15.9.833 1.983 1.25 3.25 1.25s2.317-.417 3.15-1.25c.833-.833 1.25-1.883 1.25-3.15s-.433-2.333-1.3-3.2-1.9-1.3-3.1-1.3z" fill="green"/></g></svg>