<svg width="76" height="100" viewBox="0 0 76 100" xmlns="http://www.w3.org/2000/svg"><title>s3</title><g fill="none" fill-rule="evenodd"><path d="M9.2.3h57.2c2.2 0 4.217 1.083 6.05 3.25C74.283 5.717 75.2 7.6 75.2 9.2v82.3c0 2.2-.967 4.15-2.9 5.85-1.933 1.7-3.6 2.55-5 2.55H8.7c-2.067 0-3.983-1.033-5.75-3.1S.3 92.533.3 90.2V10.5c0-2.667.967-5.033 2.9-7.1C5.133 1.333 7.133.3 9.2.3zm2.6 3.1c-2.133 0-4.133.967-6 2.9C3.933 8.233 3 10.067 3 11.8v77.1c0 2 .817 3.817 2.45 5.45 1.633 1.633 3.317 2.45 5.05 2.45h55c1.533 0 3.1-.8 4.7-2.4 1.6-1.6 2.4-3.3 2.4-5.1V11.4c0-2.133-1.017-4-3.05-5.6-2.033-1.6-3.95-2.4-5.75-2.4h-52z" fill="#FFF"/><path d="M11.8 3.4c-2.133 0-4.133.967-6 2.9C3.933 8.233 3 10.067 3 11.8v77.1c0 2 .817 3.817 2.45 5.45 1.633 1.633 3.317 2.45 5.05 2.45h55c1.533 0 3.1-.8 4.7-2.4 1.6-1.6 2.4-3.3 2.4-5.1V11.4c0-2.133-1.017-4-3.05-5.6-2.033-1.6-3.95-2.4-5.75-2.4h-52z" fill="#FFF"/><path d="M37.3 9c2.333 0 4.117.333 5.35 1 1.233.667 1.85 1.467 1.85 2.4 0 .733-.367 1.4-1.1 2v10.4c.867.467 1.3 1.2 1.3 2.2 0 .933-.5 1.6-1.5 2v10.3c1 .733 1.5 1.567 1.5 2.5 0 .867-.533 1.583-1.6 2.15-1.067.567-2.7.85-4.9.85-4.667 0-7-1.067-7-3.2 0-.867.533-1.633 1.6-2.3V29c-1.067-.467-1.6-1.133-1.6-2 0-.8.533-1.533 1.6-2.2V14.5c-1.133-.733-1.7-1.6-1.7-2.6 0-.8.5-1.483 1.5-2.05 1-.567 2.567-.85 4.7-.85zM35 38.6c.933-.2 1.967-.3 3.1-.3 1.2 0 2.167.1 2.9.3v-8.7c-.2.067-.533.133-1 .2-.467.067-1.133.1-2 .1-1.2 0-2.2-.1-3-.3v8.7zm0-23.5v8.8c.267-.067.833-.133 1.7-.2a56.41 56.41 0 0 1 1.4-.1c1.2 0 2.167.1 2.9.3v-8.8c-.8.2-1.8.3-3 .3s-2.2-.1-3-.3zm20.4 38.1c2.133 0 3.75.3 4.85.9 1.1.6 1.65 1.333 1.65 2.2 0 .8-.467 1.567-1.4 2.3V69c.867.467 1.3 1.2 1.3 2.2 0 .933-.5 1.6-1.5 2v10.3c1 .733 1.5 1.567 1.5 2.5 0 .867-.533 1.583-1.6 2.15-1.067.567-2.7.85-4.9.85-4.667 0-7-1.067-7-3.2 0-.867.533-1.633 1.6-2.3V73.2c-1.067-.467-1.6-1.133-1.6-2 0-.8.533-1.533 1.6-2.2V58.7c-1-.6-1.5-1.333-1.5-2.2 0-2.2 2.333-3.3 7-3.3zm-3.3 29.6c.933-.2 1.967-.3 3.1-.3 1.2 0 2.167.1 2.9.3v-8.7c-.2.067-.533.133-1 .2-.467.067-1.133.1-2 .1-1.2 0-2.2-.1-3-.3v8.7zm0-23.5v8.8c.267-.067.833-.133 1.7-.2a56.41 56.41 0 0 1 1.4-.1c1.2 0 2.167.1 2.9.3v-8.8c-.8.2-1.8.3-3 .3s-2.2-.1-3-.3zm-29.8-6.1c2.133 0 3.75.3 4.85.9 1.1.6 1.65 1.333 1.65 2.2 0 .8-.467 1.567-1.4 2.3V69c.867.467 1.3 1.2 1.3 2.2 0 .933-.5 1.6-1.5 2v10.3c1 .733 1.5 1.567 1.5 2.5 0 .867-.533 1.583-1.6 2.15-1.067.567-2.7.85-4.9.85-4.667 0-7-1.067-7-3.2 0-.867.533-1.633 1.6-2.3V73.2c-1.067-.467-1.6-1.133-1.6-2 0-.8.533-1.533 1.6-2.2V58.7c-1-.6-1.5-1.333-1.5-2.2 0-2.2 2.333-3.3 7-3.3zM19 82.8c.933-.2 1.967-.3 3.1-.3 1.2 0 2.167.1 2.9.3v-8.7c-.2.067-.533.133-1 .2-.467.067-1.133.1-2 .1-1.2 0-2.2-.1-3-.3v8.7zm0-23.5v8.8c.267-.067.833-.133 1.7-.2a56.41 56.41 0 0 1 1.4-.1c1.2 0 2.167.1 2.9.3v-8.8c-.8.2-1.8.3-3 .3s-2.2-.1-3-.3z" fill="green"/></g></svg>