<svg width="76" height="100" viewBox="0 0 76 100" xmlns="http://www.w3.org/2000/svg"><title>s8</title><g fill="none" fill-rule="evenodd"><path d="M9.2.3h57.2c2.2 0 4.217 1.083 6.05 3.25C74.283 5.717 75.2 7.6 75.2 9.2v82.3c0 2.2-.967 4.15-2.9 5.85-1.933 1.7-3.6 2.55-5 2.55H8.7c-2.067 0-3.983-1.033-5.75-3.1S.3 92.533.3 90.2V10.5c0-2.667.967-5.033 2.9-7.1C5.133 1.333 7.133.3 9.2.3zm2.6 3.1c-2.133 0-4.133.967-6 2.9C3.933 8.233 3 10.067 3 11.8v77.1c0 2 .817 3.817 2.45 5.45 1.633 1.633 3.317 2.45 5.05 2.45h55c1.533 0 3.1-.8 4.7-2.4 1.6-1.6 2.4-3.3 2.4-5.1V11.4c0-2.133-1.017-4-3.05-5.6-2.033-1.6-3.95-2.4-5.75-2.4h-52z" fill="#FFF"/><path d="M11.8 3.4c-2.133 0-4.133.967-6 2.9C3.933 8.233 3 10.067 3 11.8v77.1c0 2 .817 3.817 2.45 5.45 1.633 1.633 3.317 2.45 5.05 2.45h55c1.533 0 3.1-.8 4.7-2.4 1.6-1.6 2.4-3.3 2.4-5.1V11.4c0-2.133-1.017-4-3.05-5.6-2.033-1.6-3.95-2.4-5.75-2.4h-52z" fill="#FFF"/><path d="M38.6 9.1c2.267 0 3.983.333 5.15 1 1.167.667 1.75 1.467 1.75 2.4 0 .867-.467 1.667-1.4 2.4l6.1 8.7c1 0 1.65.167 1.95.5.3.333.383.833.25 1.5l1-.6V13.9c-1-.733-1.5-1.5-1.5-2.3 0-1 .617-1.833 1.85-2.5s3.083-1 5.55-1c2.267 0 3.967.317 5.1.95 1.133.633 1.7 1.417 1.7 2.35 0 .867-.467 1.667-1.4 2.4V25c1 .533 1.5 1.3 1.5 2.3 0 1.067-.567 1.8-1.7 2.2v11c1.133.8 1.7 1.667 1.7 2.6 0 2.2-2.333 3.3-7 3.3-5.067 0-7.6-1.067-7.6-3.2 0-.4.1-.8.3-1.2l-6.8-9.7c-.867.2-1.567.033-2.1-.5-.2-.4-.3-.833-.3-1.3 0-.467.017-.783.05-.95.033-.167.083-.283.15-.35l-4.6-5.6-4.5 5.6c.133.6.2 1.067.2 1.4 0 .4-.1.8-.3 1.2-.533.533-1.233.7-2.1.5L24.8 42c.2.4.3.8.3 1.2 0 2.133-2.533 3.2-7.6 3.2-2.267 0-3.983-.317-5.15-.95-1.167-.633-1.75-1.417-1.75-2.35 0-.533.117-1 .35-1.4.233-.4.65-.8 1.25-1.2v-11c-.533-.2-.933-.517-1.2-.95a2.54 2.54 0 0 1-.4-1.35c0-.933.467-1.667 1.4-2.2V13.8c-.933-.733-1.4-1.533-1.4-2.4 0-.933.567-1.717 1.7-2.35s2.833-.95 5.1-.95c2.467 0 4.317.333 5.55 1 1.233.667 1.85 1.5 1.85 2.5 0 .8-.5 1.567-1.5 2.3V25l1 .6c-.133-.733.033-1.267.5-1.6.467-.333 1.033-.467 1.7-.4l6.1-8.7c-1-.6-1.5-1.333-1.5-2.2 0-1 .633-1.85 1.9-2.55 1.267-.7 3.133-1.05 5.6-1.05zm0 81.7c-2.4 0-4.233-.35-5.5-1.05-1.267-.7-1.9-1.55-1.9-2.55 0-.867.467-1.6 1.4-2.2l-6.1-8.7c-.667.067-1.233-.05-1.7-.35-.467-.3-.633-.85-.5-1.65l-1 .6V86c1 .733 1.5 1.5 1.5 2.3 0 1-.617 1.833-1.85 2.5s-3.083 1-5.55 1c-2.267 0-3.967-.317-5.1-.95-1.133-.633-1.7-1.417-1.7-2.35 0-.867.467-1.667 1.4-2.4V74.9c-.933-.467-1.4-1.233-1.4-2.3 0-1.067.533-1.8 1.6-2.2v-11c-1.133-.8-1.7-1.667-1.7-2.6 0-2.2 2.333-3.3 7-3.3 5.067 0 7.6 1.067 7.6 3.2 0 .4-.1.8-.3 1.2l6.8 9.6c1-.133 1.65.017 1.95.45.3.433.45.883.45 1.35 0 .333-.017.6-.05.8-.033.2-.083.4-.15.6l4.5 5.6 4.6-5.6c-.133-.667-.2-1.167-.2-1.5 0-.4.15-.817.45-1.25.3-.433.95-.583 1.95-.45l6.8-9.6c-.2-.4-.3-.8-.3-1.2 0-2.133 2.533-3.2 7.6-3.2 2.267 0 3.983.317 5.15.95 1.167.633 1.75 1.417 1.75 2.35 0 .533-.117 1-.35 1.4-.233.4-.65.8-1.25 1.2v11c1.133.467 1.7 1.233 1.7 2.3 0 .933-.5 1.667-1.5 2.2v11.2c.933.733 1.4 1.533 1.4 2.4 0 .933-.567 1.717-1.7 2.35s-2.833.95-5.1.95c-2.467 0-4.317-.333-5.55-1-1.233-.667-1.85-1.5-1.85-2.5 0-.8.5-1.567 1.5-2.3V74.9l-1-.6c.133.533.05 1-.25 1.4-.3.4-.95.6-1.95.6L44.1 85c.933.733 1.4 1.533 1.4 2.4 0 .933-.583 1.733-1.75 2.4-1.167.667-2.883 1-5.15 1zm-5.8-17.7c-.467.667-.933 1.167-1.4 1.5-.467.333-1.2.733-2.2 1.2a123.6 123.6 0 0 0 2.05 3.25c.633.967 1.55 2.283 2.75 3.95l2.9-4.2-4.1-5.7zm11.3-46.2c.467-.667.933-1.167 1.4-1.5.467-.333 1.2-.733 2.2-1.2a123.6 123.6 0 0 0-2.05-3.25c-.633-.967-1.55-2.283-2.75-3.95L40 21.2l4.1 5.7zm9.3 5.1L51 28.7a9.641 9.641 0 0 1-1.65 1.65c-.567.433-1.183.85-1.85 1.25l5.9 8.3V32zm-30.1 0v7.9l5.9-8.3c-.6-.4-1.2-.833-1.8-1.3-.6-.467-1.167-1-1.7-1.6L23.3 32zm15.1 48.8l-2.8 3.4c.933-.2 1.867-.3 2.8-.3.933 0 1.8.1 2.6.3l-2.6-3.4zm5.7-7.8L40 78.7l2.9 4.1 4.8-7.1c-1.067-.533-1.8-.933-2.2-1.2-.4-.267-.867-.767-1.4-1.5zm9.3-5.1V60l-5.9 8.3c.6.4 1.217.833 1.85 1.3.633.467 1.183 1 1.65 1.6l2.4-3.3zm-30.1 0l2.4 3.3c.533-.6 1.1-1.133 1.7-1.6.6-.467 1.2-.9 1.8-1.3L23.3 60v7.9zm15.1-48.8l2.6-3.4c-.8.2-1.7.3-2.7.3-.867 0-1.767-.1-2.7-.3l2.8 3.4zm-5.8 7.8l4.1-5.7-2.9-4.2-4.8 7.2c1.067.533 1.8.933 2.2 1.2.4.267.867.767 1.4 1.5zM56 39.7c.933-.2 2.033-.3 3.3-.3s2.3.1 3.1.3v-9.3c-.733.267-1.8.4-3.2.4a19.22 19.22 0 0 1-1.45-.05c-.433-.033-1.017-.15-1.75-.35v9.3zm0-25.1V24c.333-.133.85-.2 1.55-.2.7 0 1.283-.033 1.75-.1 1.267 0 2.3.1 3.1.3v-9.4c-.8.2-1.867.3-3.2.3-1.2 0-2.267-.1-3.2-.3zm-.2 70.5c1-.2 2.133-.3 3.4-.3s2.3.1 3.1.3v-9.3c-.267.067-.85.133-1.75.2s-1.383.1-1.45.1c-1.267 0-2.367-.1-3.3-.3v9.3zm0-25.1v9.4c.867-.267 2-.4 3.4-.4 1.333 0 2.367.133 3.1.4V60c-.8.2-1.867.3-3.2.3-1.267 0-2.367-.1-3.3-.3zM14.3 39.9c1-.2 2.133-.3 3.4-.3s2.3.1 3.1.3v-9.3c-.8.267-1.9.4-3.3.4a19.22 19.22 0 0 1-1.45-.05c-.433-.033-1.017-.15-1.75-.35v9.3zm0-25.1v9.4c.267-.067.883-.133 1.85-.2.967-.067 1.483-.1 1.55-.1 1.267 0 2.3.1 3.1.3v-9.4c-.933.2-2.033.3-3.3.3-1.2 0-2.267-.1-3.2-.3zm0 70.2c1-.2 2.133-.3 3.4-.3s2.3.1 3.1.3v-9.3c-.267.067-.867.133-1.8.2s-1.433.1-1.5.1c-1.2 0-2.267-.1-3.2-.3V85zm0-25.2v9.5c.867-.267 2-.4 3.4-.4 1.333 0 2.367.133 3.1.4v-9.5c-.267.067-.867.133-1.8.2s-1.433.1-1.5.1c-1.2 0-2.267-.1-3.2-.3z" fill="green"/></g></svg>