<svg width="76" height="100" viewBox="0 0 76 100" xmlns="http://www.w3.org/2000/svg"><title>s9</title><g fill="none" fill-rule="evenodd"><path d="M9.2.3h57.2c2.2 0 4.217 1.083 6.05 3.25C74.283 5.717 75.2 7.6 75.2 9.2v82.3c0 2.2-.967 4.15-2.9 5.85-1.933 1.7-3.6 2.55-5 2.55H8.7c-2.067 0-3.983-1.033-5.75-3.1S.3 92.533.3 90.2V10.5c0-2.667.967-5.033 2.9-7.1C5.133 1.333 7.133.3 9.2.3zm2.6 3.1c-2.133 0-4.133.967-6 2.9C3.933 8.233 3 10.067 3 11.8v77.1c0 2 .817 3.817 2.45 5.45 1.633 1.633 3.317 2.45 5.05 2.45h55c1.533 0 3.1-.8 4.7-2.4 1.6-1.6 2.4-3.3 2.4-5.1V11.4c0-2.133-1.017-4-3.05-5.6-2.033-1.6-3.95-2.4-5.75-2.4h-52z" fill="#FFF"/><path d="M11.8 3.4c-2.133 0-4.133.967-6 2.9C3.933 8.233 3 10.067 3 11.8v77.1c0 2 .817 3.817 2.45 5.45 1.633 1.633 3.317 2.45 5.05 2.45h55c1.533 0 3.1-.8 4.7-2.4 1.6-1.6 2.4-3.3 2.4-5.1V11.4c0-2.133-1.017-4-3.05-5.6-2.033-1.6-3.95-2.4-5.75-2.4h-52z" fill="#FFF"/><path d="M57.7 5c4.2 0 6.3.833 6.3 2.5 0 .667-.433 1.267-1.3 1.8v8.3c.867.4 1.3 1 1.3 1.8 0 .733-.467 1.267-1.4 1.6v8.2c.933.6 1.4 1.233 1.4 1.9 0 .667-.533 1.25-1.6 1.75-1.067.5-2.633.75-4.7.75-2.267 0-3.967-.233-5.1-.7-1.133-.467-1.7-1.067-1.7-1.8 0-.667.5-1.3 1.5-1.9V21c-1-.4-1.5-.933-1.5-1.6s.5-1.267 1.5-1.8V9.4c-.933-.533-1.4-1.1-1.4-1.7C51 5.9 53.233 5 57.7 5zm-3.1 23.7c.933-.2 1.967-.3 3.1-.3 1.067 0 1.967.1 2.7.3v-7c-.8.2-1.767.3-2.9.3s-2.1-.1-2.9-.3v7zm0-18.8v7c.933-.2 1.967-.3 3.1-.3 1.067 0 1.967.1 2.7.3v-7c-.4.133-.9.2-1.5.2h-1.4c-.533 0-1.083-.033-1.65-.1s-.983-.1-1.25-.1zm3 25.6c4.2 0 6.3.833 6.3 2.5 0 .667-.433 1.267-1.3 1.8v8.3c.867.4 1.3 1 1.3 1.8 0 .733-.467 1.267-1.4 1.6v8.2c.933.6 1.4 1.233 1.4 1.9 0 .667-.533 1.25-1.6 1.75-1.067.5-2.633.75-4.7.75-2.267 0-3.967-.233-5.1-.7-1.133-.467-1.7-1.067-1.7-1.8 0-.667.5-1.3 1.5-1.9v-8.2c-1-.4-1.5-.933-1.5-1.6s.5-1.267 1.5-1.8v-8.2c-.933-.533-1.4-1.1-1.4-1.7 0-1.8 2.233-2.7 6.7-2.7zm-3.1 23.7c.933-.2 1.967-.3 3.1-.3 1.067 0 1.967.1 2.7.3v-7c-.8.2-1.767.3-2.9.3s-2.1-.1-2.9-.3v7zm0-18.8v7c.933-.2 1.967-.3 3.1-.3 1.067 0 1.967.1 2.7.3v-7c-.4.133-.9.2-1.5.2h-1.4c-.533 0-1.083-.033-1.65-.1s-.983-.1-1.25-.1zm3.1 25.9c4.2 0 6.3.833 6.3 2.5 0 .667-.433 1.267-1.3 1.8v8.3c.867.4 1.3 1 1.3 1.8 0 .733-.467 1.267-1.4 1.6v8.2c.933.6 1.4 1.233 1.4 1.9 0 .667-.533 1.25-1.6 1.75-1.067.5-2.633.75-4.7.75-2.267 0-3.967-.233-5.1-.7-1.133-.467-1.7-1.067-1.7-1.8 0-.667.5-1.3 1.5-1.9v-8.2c-1-.4-1.5-.933-1.5-1.6s.5-1.267 1.5-1.8v-8.2c-.933-.533-1.4-1.1-1.4-1.7 0-1.8 2.233-2.7 6.7-2.7zM54.5 90c.933-.2 1.967-.3 3.1-.3 1.067 0 1.967.1 2.7.3v-7c-.8.2-1.767.3-2.9.3s-2.1-.1-2.9-.3v7zm0-18.8v7c.933-.2 1.967-.3 3.1-.3 1.067 0 1.967.1 2.7.3v-7c-.4.133-.9.2-1.5.2h-1.4c-.533 0-1.083-.033-1.65-.1s-.983-.1-1.25-.1zM17.9 5.1c4.2 0 6.3.833 6.3 2.5 0 .667-.433 1.267-1.3 1.8v8.3c.867.4 1.3 1 1.3 1.8 0 .733-.467 1.267-1.4 1.6v8.2c.933.6 1.4 1.233 1.4 1.9 0 .667-.533 1.25-1.6 1.75-1.067.5-2.633.75-4.7.75-2.267 0-3.967-.233-5.1-.7-1.133-.467-1.7-1.067-1.7-1.8 0-.667.5-1.3 1.5-1.9v-8.2c-1-.4-1.5-.933-1.5-1.6s.5-1.267 1.5-1.8V9.5c-.933-.533-1.4-1.1-1.4-1.7 0-1.8 2.233-2.7 6.7-2.7zm-3.1 23.7c.933-.2 1.967-.3 3.1-.3 1.067 0 1.967.1 2.7.3v-7c-.8.2-1.767.3-2.9.3s-2.1-.1-2.9-.3v7zm0-18.8v7c.933-.2 1.967-.3 3.1-.3 1.067 0 1.967.1 2.7.3v-7c-.4.133-.9.2-1.5.2h-1.4c-.533 0-1.083-.033-1.65-.1s-.983-.1-1.25-.1zm3 25.6c4.2 0 6.3.833 6.3 2.5 0 .667-.433 1.267-1.3 1.8v8.3c.867.4 1.3 1 1.3 1.8 0 .733-.467 1.267-1.4 1.6v8.2c.933.6 1.4 1.233 1.4 1.9 0 .667-.533 1.25-1.6 1.75-1.067.5-2.633.75-4.7.75-2.267 0-3.967-.233-5.1-.7-1.133-.467-1.7-1.067-1.7-1.8 0-.667.5-1.3 1.5-1.9v-8.2c-1-.4-1.5-.933-1.5-1.6s.5-1.267 1.5-1.8V40c-.933-.533-1.4-1.1-1.4-1.7 0-1.8 2.233-2.7 6.7-2.7zm-3.1 23.7c.933-.2 1.967-.3 3.1-.3 1.067 0 1.967.1 2.7.3v-7c-.8.2-1.767.3-2.9.3s-2.1-.1-2.9-.3v7zm0-18.8v7c.933-.2 1.967-.3 3.1-.3 1.067 0 1.967.1 2.7.3v-7c-.4.133-.9.2-1.5.2h-1.4c-.533 0-1.083-.033-1.65-.1s-.983-.1-1.25-.1zm3.1 25.9c4.2 0 6.3.833 6.3 2.5 0 .667-.433 1.267-1.3 1.8V79c.867.4 1.3 1 1.3 1.8 0 .733-.467 1.267-1.4 1.6v8.2c.933.6 1.4 1.233 1.4 1.9 0 .667-.533 1.25-1.6 1.75-1.067.5-2.633.75-4.7.75-2.267 0-3.967-.233-5.1-.7-1.133-.467-1.7-1.067-1.7-1.8 0-.667.5-1.3 1.5-1.9v-8.2c-1-.4-1.5-.933-1.5-1.6s.5-1.267 1.5-1.8v-8.2c-.933-.533-1.4-1.1-1.4-1.7 0-1.8 2.233-2.7 6.7-2.7zm-3.1 23.7c.933-.2 1.967-.3 3.1-.3 1.067 0 1.967.1 2.7.3v-7c-.8.2-1.767.3-2.9.3s-2.1-.1-2.9-.3v7zm0-18.8v7c.933-.2 1.967-.3 3.1-.3 1.067 0 1.967.1 2.7.3v-7c-.4.133-.9.2-1.5.2h-1.4c-.533 0-1.083-.033-1.65-.1s-.983-.1-1.25-.1z" fill="green"/><path d="M38.2 4.9c4.2 0 6.3.833 6.3 2.5 0 .667-.433 1.267-1.3 1.8v8.3c.867.4 1.3 1 1.3 1.8 0 .733-.467 1.267-1.4 1.6v8.2c.933.6 1.4 1.233 1.4 1.9 0 .667-.533 1.25-1.6 1.75-1.067.5-2.633.75-4.7.75-2.267 0-3.967-.233-5.1-.7-1.133-.467-1.7-1.067-1.7-1.8 0-.667.5-1.3 1.5-1.9v-8.2c-1-.4-1.5-.933-1.5-1.6s.5-1.267 1.5-1.8V9.3c-.933-.533-1.4-1.1-1.4-1.7 0-1.8 2.233-2.7 6.7-2.7zm-3.1 23.7c.933-.2 1.967-.3 3.1-.3 1.067 0 1.967.1 2.7.3v-7c-.8.2-1.767.3-2.9.3s-2.1-.1-2.9-.3v7zm0-18.8v7c.933-.2 1.967-.3 3.1-.3 1.067 0 1.967.1 2.7.3v-7c-.4.133-.9.2-1.5.2H38c-.533 0-1.083-.033-1.65-.1s-.983-.1-1.25-.1zm3 25.6c4.2 0 6.3.833 6.3 2.5 0 .667-.433 1.267-1.3 1.8V48c.867.4 1.3 1 1.3 1.8 0 .733-.467 1.267-1.4 1.6v8.2c.933.6 1.4 1.233 1.4 1.9 0 .667-.533 1.25-1.6 1.75-1.067.5-2.633.75-4.7.75-2.267 0-3.967-.233-5.1-.7-1.133-.467-1.7-1.067-1.7-1.8 0-.667.5-1.3 1.5-1.9v-8.2c-1-.4-1.5-.933-1.5-1.6s.5-1.267 1.5-1.8v-8.2c-.933-.533-1.4-1.1-1.4-1.7 0-1.8 2.233-2.7 6.7-2.7zM35 59.1c.933-.2 1.967-.3 3.1-.3 1.067 0 1.967.1 2.7.3v-7c-.8.2-1.767.3-2.9.3s-2.1-.1-2.9-.3v7zm0-18.8v7c.933-.2 1.967-.3 3.1-.3 1.067 0 1.967.1 2.7.3v-7c-.4.133-.9.2-1.5.2h-1.4c-.533 0-1.083-.033-1.65-.1s-.983-.1-1.25-.1zm3.1 25.9c4.2 0 6.3.833 6.3 2.5 0 .667-.433 1.267-1.3 1.8v8.3c.867.4 1.3 1 1.3 1.8 0 .733-.467 1.267-1.4 1.6v8.2c.933.6 1.4 1.233 1.4 1.9 0 .667-.533 1.25-1.6 1.75-1.067.5-2.633.75-4.7.75-2.267 0-3.967-.233-5.1-.7-1.133-.467-1.7-1.067-1.7-1.8 0-.667.5-1.3 1.5-1.9v-8.2c-1-.4-1.5-.933-1.5-1.6s.5-1.267 1.5-1.8v-8.2c-.933-.533-1.4-1.1-1.4-1.7 0-1.8 2.233-2.7 6.7-2.7zM35 89.9c.933-.2 1.967-.3 3.1-.3 1.067 0 1.967.1 2.7.3v-7c-.8.2-1.767.3-2.9.3s-2.1-.1-2.9-.3v7zm0-18.8v7c.933-.2 1.967-.3 3.1-.3 1.067 0 1.967.1 2.7.3v-7c-.4.133-.9.2-1.5.2h-1.4c-.533 0-1.083-.033-1.65-.1s-.983-.1-1.25-.1z" fill="#F00"/></g></svg>