<svg width="76" height="100" viewBox="0 0 76 100" xmlns="http://www.w3.org/2000/svg"><title>we</title><g fill="none" fill-rule="evenodd"><path d="M9.2.3h57.2c2.2 0 4.217 1.083 6.05 3.25C74.283 5.717 75.2 7.6 75.2 9.2v82.3c0 2.2-.967 4.15-2.9 5.85-1.933 1.7-3.6 2.55-5 2.55H8.7c-2.067 0-3.983-1.033-5.75-3.1S.3 92.533.3 90.2V10.5c0-2.667.967-5.033 2.9-7.1C5.133 1.333 7.133.3 9.2.3zm2.6 3.1c-2.133 0-4.133.967-6 2.9C3.933 8.233 3 10.067 3 11.8v77.1c0 2 .817 3.817 2.45 5.45 1.633 1.633 3.317 2.45 5.05 2.45h55c1.533 0 3.1-.8 4.7-2.4 1.6-1.6 2.4-3.3 2.4-5.1V11.4c0-2.133-1.017-4-3.05-5.6-2.033-1.6-3.95-2.4-5.75-2.4h-52z" fill="#FFF"/><path d="M11.8 3.4c-2.133 0-4.133.967-6 2.9C3.933 8.233 3 10.067 3 11.8v77.1c0 2 .817 3.817 2.45 5.45 1.633 1.633 3.317 2.45 5.05 2.45h55c1.533 0 3.1-.8 4.7-2.4 1.6-1.6 2.4-3.3 2.4-5.1V11.4c0-2.133-1.017-4-3.05-5.6-2.033-1.6-3.95-2.4-5.75-2.4h-52z" fill="#FFF"/><path d="M31.6 17.8c.867-.467 1.633-.7 2.3-.7.4 0 .9.167 1.5.5.6.333.95.75 1.05 1.25.1.5.15 1.45.15 2.85 0 .333-.067.967-.2 1.9-.133.933-.2 1.667-.2 2.2 0 .4.033.733.1 1 .733-.133 1.3-.2 1.7-.2.6 0 1.25.2 1.95.6.7.4 1.717 1.2 3.05 2.4l-.2 1.4c-.2.067-1.167.283-2.9.65-1.733.367-3.2.617-4.4.75v1.2c0 .4-.033 1.033-.1 1.9s-.1 1.633-.1 2.3c.467-.133 1.4-.483 2.8-1.05 1.4-.567 2.733-.85 4-.85 2.067 0 3.733.383 5 1.15 1.267.767 1.9 1.95 1.9 3.55 0 4-.7 7-2.1 9-1.4 2-3 3.467-4.8 4.4-.267.133-.867.117-1.8-.05s-1.667-.25-2.2-.25c-.933 0-1.833.167-2.7.5 1.867 2.8 7.133 6.083 15.8 9.85 8.667 3.767 13.933 6.05 15.8 6.85-1.2.733-2.917 1.483-5.15 2.25-2.233.767-4.017 1.15-5.35 1.15-1.733-.333-4.617-1.9-8.65-4.7-4.033-2.8-8.383-6.867-13.05-12.2l.3 7.8c0 2.533.25 5.05.75 7.55s.75 3.983.75 4.45a11.42 11.42 0 0 1-.4 3.05c-.267.967-.8 1.45-1.6 1.45-.733 0-1.733-.767-3-2.3s-1.9-2.967-1.9-4.3l.2-.6 1.6.6V57.6c-1.267 2.067-3.233 4.3-5.9 6.7-2.667 2.4-6.567 5.033-11.7 7.9l-2.4-.5c2.8-1.667 5.667-3.733 8.6-6.2s5.767-5.833 8.5-10.1c-.267-.267-.6-.45-1-.55-.4-.1-.667-.383-.8-.85.333-.8.933-1.2 1.8-1.2h1.7c.4-.133.867-.4 1.4-.8v-2.5c-.867.2-1.5.317-1.9.35-.4.033-.9.05-1.5.05-.533 0-.967-.033-1.3-.1l-.4-1.3c.6-.467 1.333-.9 2.2-1.3.867-.4 1.8-.867 2.8-1.4l.1-2.7c-1.2.333-2.25.6-3.15.8-.9.2-1.617.3-2.15.3-.933 0-1.6-.367-2-1.1 2-.933 3.367-1.583 4.1-1.95.733-.367 1.867-1.017 3.4-1.95V33c-.4.133-1.1.283-2.1.45-1 .167-2.067.25-3.2.25-.933 0-1.717-.083-2.35-.25-.633-.167-.783-.683-.45-1.55 1.267-.467 2.7-.967 4.3-1.5 1.6-.533 2.833-1.067 3.7-1.6v-3.45l.1-3.55v-1.2c0-1.267-.1-2.2-.3-2.8zM17.5 42.6c.133 0 .4-.033.8-.1s.767-.1 1.1-.1c.667 0 1.383.167 2.15.5.767.333 1.567 1.383 2.4 3.15S25.2 49.8 25.2 52a6.62 6.62 0 0 1-.55 2.6c-.367.867-.75 1.167-1.15.9-2-1.267-3.117-3.133-3.35-5.6-.233-2.467-1.117-4.433-2.65-5.9v-1.4zM43 40c-.533-.2-1.6-.1-3.2.3s-3 .933-4.2 1.6v2.9H37c1.467 0 2.2.433 2.2 1.3 0 .667-.4 1.133-1.2 1.4-1.133.2-2 .4-2.6.6V51c1.6-.333 2.667-.567 3.2-.7.533-.133 1.183-.483 1.95-1.05.767-.567 1.45-1.6 2.05-3.1.6-1.5.9-2.883.9-4.15 0-1.2-.167-1.867-.5-2z" fill="#000"/></g></svg>