<svg width="76" height="100" viewBox="0 0 76 100" xmlns="http://www.w3.org/2000/svg"><title>wn</title><g fill="none" fill-rule="evenodd"><path d="M9.2.3h57.2c2.2 0 4.217 1.083 6.05 3.25C74.283 5.717 75.2 7.6 75.2 9.2v82.3c0 2.2-.967 4.15-2.9 5.85-1.933 1.7-3.6 2.55-5 2.55H8.7c-2.067 0-3.983-1.033-5.75-3.1S.3 92.533.3 90.2V10.5c0-2.667.967-5.033 2.9-7.1C5.133 1.333 7.133.3 9.2.3zm2.6 3.1c-2.133 0-4.133.967-6 2.9C3.933 8.233 3 10.067 3 11.8v77.1c0 2 .817 3.817 2.45 5.45 1.633 1.633 3.317 2.45 5.05 2.45h55c1.533 0 3.1-.8 4.7-2.4 1.6-1.6 2.4-3.3 2.4-5.1V11.4c0-2.133-1.017-4-3.05-5.6-2.033-1.6-3.95-2.4-5.75-2.4h-52z" fill="#FFF"/><path d="M11.8 3.4c-2.133 0-4.133.967-6 2.9C3.933 8.233 3 10.067 3 11.8v77.1c0 2 .817 3.817 2.45 5.45 1.633 1.633 3.317 2.45 5.05 2.45h55c1.533 0 3.1-.8 4.7-2.4 1.6-1.6 2.4-3.3 2.4-5.1V11.4c0-2.133-1.017-4-3.05-5.6-2.033-1.6-3.95-2.4-5.75-2.4h-52z" fill="#FFF"/><path d="M43.9 26.6a198.85 198.85 0 0 0-2.45 9.3c-.833 3.467-1.25 6.8-1.25 10 .667-.4 2.117-1.567 4.35-3.5 2.233-1.933 3.75-3.017 4.55-3.25.8-.233 1.533-.35 2.2-.35a8.47 8.47 0 0 1 3.75.85c1.167.567 1.75 1.183 1.75 1.85.2.733-1.783 1.683-5.95 2.85S43.067 47.167 40 49.3c0 .733-.05 2.317-.15 4.75-.1 2.433-.15 4.05-.15 4.85v2.45l.2 2.9c.133 1.933.883 3.333 2.25 4.2S45.6 70 48.4 70.5c1.4 0 2.867-.167 4.4-.5 1.533-.333 3.4-.933 5.6-1.8.067-.333.1-.7.1-1.1 0-.467-.217-.9-.65-1.3-.433-.4-.717-1-.85-1.8 1.867.467 3.467 1 4.8 1.6 1.333.6 2.667 1.167 4 1.7.467.533.7 1.133.7 1.8 0 1.533-1.383 2.85-4.15 3.95-2.767 1.1-6.35 1.65-10.75 1.65-6.667 0-11.1-1.133-13.3-3.4-2.2-2.267-3.3-6.8-3.3-13.6 0-4.533.317-9.767.95-15.7s.95-10.633.95-14.1c0-1.267-.05-2.133-.15-2.6-.1-.467-.45-1.433-1.05-2.9.4-.933 1.267-1.4 2.6-1.4 1.067 0 2.1.433 3.1 1.3s1.833 2.3 2.5 4.3zm-20.4 5c2 .667 3.317 1.65 3.95 2.95.633 1.3.95 2.95.95 4.95 0 .6-.017 1.167-.05 1.7-.033.533-.05 1.067-.05 1.6 0 2-.133 4.7-.4 8.1-.267 3.4-.4 5.467-.4 6.2l4.6-5.6c-.6 3.667-2.55 8.017-5.85 13.05-3.3 5.033-6.383 8.683-9.25 10.95-.333-.2-1.167-.417-2.5-.65-1.333-.233-2-1.35-2-3.35 0-.733.033-1.333.1-1.8.4-.267 1.033-.6 1.9-1s1.7-.767 2.5-1.1l3.9-2.4c1.467-1.8 2.283-4.033 2.45-6.7.167-2.667.317-5.2.45-7.6-1 .333-2 .5-3 .5-.533 0-1.25-.367-2.15-1.1-.9-.733-1.85-1.45-2.85-2.15s-2.133-1.317-3.4-1.85c.2-.467.667-.8 1.4-1A8.33 8.33 0 0 1 16 45c.8 0 1.383.017 1.75.05s1 .25 1.9.65c.9.4 1.667.75 2.3 1.05.633.3 1.283.55 1.95.75 0-1.267-.017-2.55-.05-3.85-.033-1.3-.1-2.417-.2-3.35-.1-.933-.45-1.933-1.05-3-.6-1.067-1.017-1.817-1.25-2.25-.233-.433-.4-.983-.5-1.65-.1-.667-.183-1.2-.25-1.6.4-.133.883-.233 1.45-.3.567-.067 1.05-.033 1.45.1z" fill="#000"/></g></svg>