<svg width="76" height="100" viewBox="0 0 76 100" xmlns="http://www.w3.org/2000/svg"><title>ws</title><g fill="none" fill-rule="evenodd"><path d="M9.2.3h57.2c2.2 0 4.217 1.083 6.05 3.25C74.283 5.717 75.2 7.6 75.2 9.2v82.3c0 2.2-.967 4.15-2.9 5.85-1.933 1.7-3.6 2.55-5 2.55H8.7c-2.067 0-3.983-1.033-5.75-3.1S.3 92.533.3 90.2V10.5c0-2.667.967-5.033 2.9-7.1C5.133 1.333 7.133.3 9.2.3zm2.6 3.1c-2.133 0-4.133.967-6 2.9C3.933 8.233 3 10.067 3 11.8v77.1c0 2 .817 3.817 2.45 5.45 1.633 1.633 3.317 2.45 5.05 2.45h55c1.533 0 3.1-.8 4.7-2.4 1.6-1.6 2.4-3.3 2.4-5.1V11.4c0-2.133-1.017-4-3.05-5.6-2.033-1.6-3.95-2.4-5.75-2.4h-52z" fill="#FFF"/><path d="M11.8 3.4c-2.133 0-4.133.967-6 2.9C3.933 8.233 3 10.067 3 11.8v77.1c0 2 .817 3.817 2.45 5.45 1.633 1.633 3.317 2.45 5.05 2.45h55c1.533 0 3.1-.8 4.7-2.4 1.6-1.6 2.4-3.3 2.4-5.1V11.4c0-2.133-1.017-4-3.05-5.6-2.033-1.6-3.95-2.4-5.75-2.4h-52z" fill="#FFF"/><path d="M37.6 21.4c.2.8.3 1.6.3 2.4 0 .867-.117 1.9-.35 3.1-.233 1.2-.35 1.933-.35 2.2.8.133 1.717.083 2.75-.15a71.073 71.073 0 0 0 3.35-.85c2 0 3 1.4 3 4.2-1.133.533-2.617 1.15-4.45 1.85-1.833.7-3.55 1.283-5.15 1.75-.267 1-.717 2.4-1.35 4.2a93.231 93.231 0 0 1-1.65 4.4 437.433 437.433 0 0 0 7.5-2.1c2.733-.533 5.433-.8 8.1-.8 3.2 0 5.483.45 6.85 1.35 1.367.9 2.05 2.75 2.05 5.55 0 6-1.217 12.467-3.65 19.4-2.433 6.933-5.05 10.4-7.85 10.4-1.533 0-3-.267-4.4-.8-1.4-.533-4.7-2.133-9.9-4.8l2 .3c-.2-1.267-.333-2.967-.4-5.1-.067-2.133-.1-3.3-.1-3.5l-6 2.1c-.533 0-1.017-.367-1.45-1.1-.433-.733-.65-1.367-.65-1.9 0-.333.85-1.15 2.55-2.45 1.7-1.3 3.45-3.15 5.25-5.55-1.533.067-2.533.1-3 .1-.467 0-1.1-.1-1.9-.3 1-.467 2-.967 3-1.5-.867-.4-1.7-.933-2.5-1.6a11.756 11.756 0 0 1-2-2.1c-1.6.467-3.067.867-4.4 1.2-1.333.333-2.2.5-2.6.5-.267 0-.55-.067-.85-.2-.3-.133-.55-.233-.75-.3.933-.8 2.217-1.55 3.85-2.25s2.783-1.183 3.45-1.45c-.6-.467-1.067-.9-1.4-1.3 2-.733 3.55-2.083 4.65-4.05 1.1-1.967 1.65-3.683 1.65-5.15l-3.5.35-3.4.15c-2.4 0-4.6-.733-6.6-2.2 1.933-.267 4.133-.667 6.6-1.2 2.467-.533 5.233-1.433 8.3-2.7 0-2.933-.167-4.667-.5-5.2-.867-.6-1.767-1.467-2.7-2.6 0-.867.267-1.633.8-2.3.533-.667 1.5-1 2.9-1 1.267 0 2.9.333 4.9 1zM13.1 52c1.533.867 2.917 2.467 4.15 4.8 1.233 2.333 2.083 4.55 2.55 6.65a22.636 22.636 0 0 0 2.3 6.05c1.067 1.933 1.6 3.167 1.6 3.7 0 .867-.133 1.45-.4 1.75-.267.3-.533.517-.8.65-4.533-1.733-7.017-3.817-7.45-6.25-.433-2.433-.983-6.617-1.65-12.55l-.3-4.8zm16.4-3.3l3 2v1.2l-.3 1.5c.733-.2 1.85-1.233 3.35-3.1s2.183-3.233 2.05-4.1c-.2-.2-.5-.3-.9-.3-.867 0-1.85.233-2.95.7-1.1.467-2.517 1.167-4.25 2.1zm12.2-3.5c.267.133.5.283.7.45.2.167.3.383.3.65 0 .667-.683 1.733-2.05 3.2a412.412 412.412 0 0 1-2.15 2.3c.667 0 1.367.017 2.1.05.733.033 1.1.217 1.1.55 0 .533-.35 1.05-1.05 1.55-.7.5-1.283.883-1.75 1.15v2.8c1.067-.133 1.7-.2 1.9-.2 1.2 0 2 .567 2.4 1.7-2 .533-3.25 1.033-3.75 1.5-.5.467-.883.833-1.15 1.1-.267 2.2-.467 4.167-.6 5.9-.133 1.733-.433 3.567-.9 5.5.933 0 1.883.033 2.85.1.967.067 1.95.133 2.95.2 1.467 0 2.767-.367 3.9-1.1 1.133-.733 2.333-4.083 3.6-10.05C51.367 56.583 52 52.333 52 49.8c0-1.933-.533-3.283-1.6-4.05-1.067-.767-2.433-1.15-4.1-1.15-.8 0-1.683.083-2.65.25a91.48 91.48 0 0 0-1.95.35zm-8.1 13.7l.1 1.6-2.1.8 2-2.4z" fill="#000"/></g></svg>