<svg width="76" height="100" viewBox="0 0 76 100" xmlns="http://www.w3.org/2000/svg"><title>ww</title><g fill="none" fill-rule="evenodd"><path d="M9.2.3h57.2c2.2 0 4.217 1.083 6.05 3.25C74.283 5.717 75.2 7.6 75.2 9.2v82.3c0 2.2-.967 4.15-2.9 5.85-1.933 1.7-3.6 2.55-5 2.55H8.7c-2.067 0-3.983-1.033-5.75-3.1S.3 92.533.3 90.2V10.5c0-2.667.967-5.033 2.9-7.1C5.133 1.333 7.133.3 9.2.3zm2.6 3.1c-2.133 0-4.133.967-6 2.9C3.933 8.233 3 10.067 3 11.8v77.1c0 2 .817 3.817 2.45 5.45 1.633 1.633 3.317 2.45 5.05 2.45h55c1.533 0 3.1-.8 4.7-2.4 1.6-1.6 2.4-3.3 2.4-5.1V11.4c0-2.133-1.017-4-3.05-5.6-2.033-1.6-3.95-2.4-5.75-2.4h-52z" fill="#FFF"/><path d="M11.8 3.4c-2.133 0-4.133.967-6 2.9C3.933 8.233 3 10.067 3 11.8v77.1c0 2 .817 3.817 2.45 5.45 1.633 1.633 3.317 2.45 5.05 2.45h55c1.533 0 3.1-.8 4.7-2.4 1.6-1.6 2.4-3.3 2.4-5.1V11.4c0-2.133-1.017-4-3.05-5.6-2.033-1.6-3.95-2.4-5.75-2.4h-52z" fill="#FFF"/><path d="M43.9 23.8c2.8.933 4.5 1.55 5.1 1.85.6.3 1.1 1.183 1.5 2.65-1.533.6-4.35 2.033-8.45 4.3S35.233 36 33.9 36l1.2-1.7c-.733 0-1.467.017-2.2.05-.733.033-1.433.05-2.1.05-2.4 0-4.333-.167-5.8-.5-1.467-.333-2.967-1.1-4.5-2.3 1.267-.6 4.933-1.817 11-3.65s10.2-3.217 12.4-4.15zm3.5 13.4c0 .4.05 1.183.15 2.35.1 1.167.15 2.15.15 2.95 2-.4 3.733-.6 5.2-.6 3.267 0 5.583.967 6.95 2.9 1.367 1.933 2.05 4.733 2.05 8.4-3.667 6-6.5 10.583-8.5 13.75s-3.633 4.75-4.9 4.75c-.933 0-1.8-.7-2.6-2.1-.8-1.4-1.667-2.1-2.6-2.1-1.333 0-4.017.417-8.05 1.25s-6.583 1.317-7.65 1.45c-.467-.733-.7-1.433-.7-2.1 0-.533.1-1.1.3-1.7.8 0 1.633-.117 2.5-.35.867-.233 1.333-.483 1.4-.75-2.6-3.267-3.9-7.7-3.9-13.3-.4.067-1.65.233-3.75.5s-3.617.4-4.55.4c-.133.533-.117 1.467.05 2.8.167 1.333.317 2.5.45 3.5.933.8 1.767 1.967 2.5 3.5.733 1.533 2 4.733 3.8 9.6-1.133.333-2.033.5-2.7.5-2.667 0-4.667-1.5-6-4.5-1.333-3-2.733-7.433-4.2-13.3l4.1 1.3c.333-.867.55-1.55.65-2.05L17.8 53c.733-.933 1.967-1.767 3.7-2.5 2.333-.8 4.067-1.4 5.2-1.8l.2-3.1c.8-.133 1.5-.017 2.1.35.6.367 1.1.917 1.5 1.65 1.6-.867 3.25-1.55 4.95-2.05 1.7-.5 3.383-.817 5.05-.95.067-.2.1-.6.1-1.2 0-1-.167-2.333-.5-4-.333-1.667-.667-3.033-1-4.1a4.02 4.02 0 0 1 2.1-.6c.8 0 1.667.183 2.6.55.933.367 2.133 1.017 3.6 1.95zm.1 9.3c-1.467 4.533-3.117 8.533-4.95 12-1.833 3.467-4.117 5.967-6.85 7.5a672.896 672.896 0 0 0 7.65-1.8c2.767-.667 4.667-1.617 5.7-2.85 1.033-1.233 2.15-3.1 3.35-5.6 1.2-2.5 1.8-4.483 1.8-5.95v-.6c-.133-.267-.55-.667-1.25-1.2-.7-.533-1.267-.95-1.7-1.25-.433-.3-1.017-.45-1.75-.45l-2 .2zM31.8 51c1.267 1.733 2.05 3.567 2.35 5.5.3 1.933.583 3.7.85 5.3 1.867-.6 3.183-2.067 3.95-4.4.767-2.333 1.15-5.3 1.15-8.9-1.8.2-3.45.5-4.95.9s-2.617.933-3.35 1.6z" fill="#000"/></g></svg>